<svg version="1" xmlns="http://www.w3.org/2000/svg" width="933.333" height="933.333" viewBox="0 0 700.000000 700.000000"><path d="M0 350v350h700V0H0v350zm451.7-206.8c-.3.8-.6.5-.6-.6-.1-1.1.2-1.7.5-1.3.3.3.4 1.2.1 1.9zm1.3 15.1v13.2l11.6 17c6.3 9.4 11.9 17.5 12.2 18.2.5.8 7.4-.2 25.2-3.7 13.5-2.7 40.9-8.1 61-12 20.1-3.9 41.9-8.2 48.4-9.5 6.6-1.3 12.3-2.2 12.8-1.9.4.3.8 1.3.8 2.2 0 1.4-4.7 2.6-29.8 7.4-16.3 3.1-49.7 9.6-74.2 14.3-24.5 4.7-49.7 9.6-56 10.8l-11.5 2.2-.3 111.9-.2 111.8-2.3-.7c-1.2-.4-4.4-1-7.1-1.2l-4.9-.5.6-16.2c.9-21.4 1.6-54.3 1-48.5l-.4 4.6-11.5.5c-6.3.3-11.7.8-12 1.1-1.3 1.3-13 60.2-12.1 60.8.5.4.1 2.1-.9 4-.9 1.9-2 4.9-2.5 6.6-.5 2.7-.4 3.3.9 3.3.9 0 2.8 1.2 4.3 2.6 4.9 4.7 14.5 4.2 18.8-1 2.2-2.6 6.5-2 8.9 1.4 2.5 3.3 7.9 5.2 12.4 4.3 1.7-.3 4.5-2.1 6.4-3.9 4-4.1 6.1-4.2 11.1-.8 4.6 3.1 10.6 2.9 14.9-.5 1.5-1.1 3.5-2.1 4.5-2.1 1.5 0 1.9-.8 1.9-3.6 0-1.9-.7-4.2-1.5-5-.8-.9-1.5-2.4-1.5-3.6 0-1.9.4-1.9 22.8-1.3 29.4.8 78.8-.8 90.6-3 10.1-1.8 23.3-5.8 26-7.8 2.1-1.5 1.9-1.8-30.2-49l-13.4-19.9-4.7 9.9c-6.7 13.9-11.2 17.2-29.1 21.5-10.7 2.5-11.9 3.2-26.5 13.8-6.6 4.8-16.3 11.1-21.5 14-5.2 2.9-12.7 7.4-16.5 10-3.9 2.6-8.7 5-10.7 5.4-4.5.8-8.2 3.6-9.8 7.6-1.5 3.6-2.6 3.8-5 .8s-1.7-3.6 13.7-11.2c28.5-14.1 44.5-24.8 57.7-38.6 7.6-7.9 9.2-11.4 5.9-12.4-5-1.6-22.8-2.8-48.5-3.3l-28.8-.6V232.5l13.8-2.7c49-9.6 108.9-21.3 121.6-23.8 8.2-1.7 15.2-3 15.6-3 .4 0 1.3 3.4 1.9 7.6 2.2 13.4 2.9 28.5 1.9 42.9-1.7 25.7-7.3 47.3-22.5 86l-7.4 19 23.2 34.5c12.8 19 23.3 34.6 23.5 34.8.4.5 11.5-5.9 16.7-9.6 2.6-1.9 5.2-4.3 5.9-5.5.9-1.8.6-2.5-2.6-5.1-4.5-3.8-4.8-7.5-1-10.5 3.6-2.8 7-2.6 10.1.5 2.3 2.3 2.5 3.1 2.1 9.8-.3 6.1-.8 8-3.3 11.6-4.6 6.7-12.9 15.3-24.1 25.1-11.4 9.9-16 16-17 22.5l-.6 4.4H46.2l-3.2-4.3c-8.4-11.3-16-33.4-16-46.7 0-28.5 18.5-62.8 44-81.5l6.5-4.7 10.5.4c11.8.5 14.3 1.2 11.2 3.4-3.6 2.5-4.6 6.8-3.2 13.4.7 3.3 1.7 6 2.2 6 .5 0 3.9-2.8 7.4-6.1l6.4-6.2 4.4 2.4 4.4 2.3 3.9-2.7c4.8-3.3 7.1-3.4 8.3-.3 1.3 3.4 5.8 6.6 9.4 6.6 1.7 0 6-.9 9.4-2 3.5-1.1 7.5-2 8.8-2 2.2 0 2.4.2 1.3 2.2-.7 1.3-3.1 4.8-5.5 7.8s-5 7.1-5.8 9c-2.5 6-9.4 10.8-13.3 9.3-1-.4-4.2-2.6-7.1-5-6.9-5.6-10.9-5.7-23.6-.7-20.6 8.3-32.8 14.8-43.5 23.4-12.6 10.2-16.5 15.1-15.7 19.9 2 12.7 20.4 22.2 47.7 24.7 7.5.6 7.6.7 6.5 3-1 2.2-1.5 2.3-7.8 1.7-6.4-.6-6.8-.5-6.8 1.5 0 2.1.4 2.3 9.3 3.8 2.7.5 4.1 1.3 4.7 2.9 1 2.7 5.4 6.3 8.8 7.2 3.4.8 9.4-1.2 12.2-4.2 1.3-1.4 2.7-2.5 3.1-2.5.4 0 1.7 1.5 2.8 3.4 2.2 3.5 7.3 6.6 11.1 6.6 3.6 0 8.5-2.8 10.4-6 1.6-2.7 5.6-4.3 5.6-2.1 0 1.7 5.4 6.1 8.6 7 4.9 1.4 9.9-.3 13.1-4.4 2.5-3.1 3.3-3.5 7.6-3.5h4.7v-8h-5.5c-4.4 0-5.6-.4-6.5-2-1.5-2.9-6.3-5-11.1-5-3.4 0-4.7.6-7.6 3.5-3.9 3.9-7.7 4.6-9.3 1.5-1.4-2.7-6.2-5-10.2-5-3.6 0-9.5 3.1-10.4 5.5-1 2.5-3.1 1.7-5.2-1.9-2.5-4.3-7.4-6.9-11.7-6.4l-3.3.4-2.2-8.2c-2.7-9.9-2-12.4 3.5-12.4 3.1 0 4.8 1.2 13.5 9.5 17.1 16.4 22 16.6 37.9 1.1 4.7-4.6 9.1-8.5 9.8-8.7 1.8-.6 113.3-100 114.8-102.3.7-1.2 7-17 13.8-35.1 6.9-18.2 12.9-33.9 13.3-34.9.7-1.7.4-1.9-3.2-1.3-11.7 2-11.4 2-11.4.4 0-1.8-3.5-1 49.3-11.3l40.8-7.9 30.2-26.9c34.1-30.3 31.5-26.8 31.6-43.9.1-7.9.4-9.7 1.6-9.7 1.3 0 1.5 2.1 1.5 13.3zm154.2 33c-1.4 1.5-2.2 3.6-2.2 6 0 3-.4 3.8-2.2 4.2-1.3.3-34.5 6.8-73.8 14.5s-72.3 14.2-73.3 14.4c-1.6.4-1.8-.2-1.5-5.2l.3-5.6 21.5-4.3c11.8-2.3 39.1-7.6 60.5-11.8 31.6-6.2 70.3-13.9 72.4-14.4.3-.1-.5.9-1.7 2.2zM476 438c6 3.1 7.3 11 2.5 16-3.5 3.7-7.3 4.5-11.8 2.6-4.3-1.7-7-5.6-6.9-9.7.2-8 8.8-12.7 16.2-8.9zm-355.7 2.8c5.4 5.4 3.1 14.4-4.4 16.8-10.5 3.5-19-8.7-11.5-16.5 4.7-4.9 11.1-5 15.9-.3zm302.4.7c3.2 3.2 3.5 4 3 7.7-.8 6.2-4.4 9.3-10.8 9.3-4.5 0-5.4-.4-8-3.3-6.5-7.2-1.7-17.1 8.5-17.2 3 0 4.5.7 7.3 3.5zm25.1-1.4c4 1.4 6.2 4.9 6.2 9.9 0 8.9-10.8 13.4-17.8 7.5-5.4-4.5-4.8-12.9 1.2-16.6 3.5-2.2 6-2.4 10.4-.8zm-304.3 1.3c5.3 2.3 7.9 8.9 5.4 13.9-2 3.8-5.1 5.7-9.9 5.7-5.3 0-8.2-1.7-10-5.9-2.4-5.8.1-11.6 6-14 3.4-1.4 4.6-1.3 8.5.3zm28.5.1c6.6 3.4 7.6 12.1 1.9 16.9-5.1 4.3-13.6 3-16.5-2.5-5-9.7 4.9-19.4 14.6-14.4zm261.2 1.5c-1 1.8-2.5 3-3.7 3-1.2 0-2.7-1.2-3.7-3l-1.7-3h10.8l-1.7 3zm179.7 34.7l1.8 5.3H337.6c-256 0-277.3-.1-279.6-1.7-3.5-2.2-9-7.5-9-8.5 0-.4 126.5-.7 281.1-.6l281 .3 1.8 5.2zm6 9.7c3.4 3.6 11.2 6.6 20.4 7.8 6.8.9 10.3.8 19.7-.6 6.2-.9 11.7-1.3 12.1-.9.5.5 1.1 3.8 1.5 7.4 1 9.9 2 9.6-33.6 10.9-16.2.5-38 1-48.5 1-10.4 0-22 .3-25.6.6l-6.6.7 6.5 14.1c3.5 7.7 7.7 17.4 9.4 21.5 2.6 6.5 2.7 7.6 1.4 8.9-.8.8-2.1 1.2-2.8 1-.7-.3-5.4-10.7-10.3-23.2-6.9-17.4-9.4-22.6-10.7-22.6-1 0-1.8.3-1.8.7 0 .3 2.3 6 5.1 12.6 4.9 11.3 5.1 12.1 3.4 13.3-1 .7-2.1 1.1-2.5.9-.4-.3-3.1-6.6-6-14-6.2-15.9-9.6-18.8-4.7-4 2.5 7.4 2.9 9.7 1.9 10.7-1.9 1.9-2.9.2-6-10.2-2.5-8-3.3-9.6-5.2-9.8-1.9-.3-2.1 0-1.6 1.5 3.6 9.2 11.8 35.5 11.9 38.3.2 3.1-.1 3.5-2.3 3.5-2.3 0-2.7-1-8.6-21.5-4.2-14.9-6.6-21.6-7.6-21.8-1.2-.2-.7 2.6 2.4 13.8 2.2 7.7 3.7 14.7 3.4 15.5-.3.8-1.4 1.5-2.4 1.5-1.5 0-2.3-2.3-5.1-13.8-1.8-7.5-3.5-14.5-3.8-15.5-.2-.9-1.2-1.7-2.2-1.7-1.7 0-1.7.4 0 9.2 2.4 12.1 2.4 13.8 0 13.8-1.6 0-2.1-1.5-3.7-11.5-1.3-8.5-2.1-11.5-3.2-11.5-1 0-1.3.8-.9 2.7 1.5 7.4 4.8 37.5 4.3 38.8-.3.8-1.7 1.5-3.1 1.5-2 0-2.5-.5-2.6-2.8 0-1.5-.8-11-1.7-21.2-1.5-16.6-1.9-18.5-3.6-18.8-1.7-.4-1.8 0-1.3 3.5.4 2.2 1 9.2 1.3 15.6l.7 11.7h-2.5c-2.5 0-2.5-.1-3.1-10.7-.4-5.8-.7-12.8-.7-15.5 0-4.1-.3-4.8-2-4.8-2.4 0-2.4.2-.8 12.6 1 8.1.9 9.7-.3 10.4-.7.5-1.7.6-2.1.2-.6-.6-2.8-17.6-2.8-21.7 0-.8-.9-1.5-2-1.5-2.6 0-2.6.6.5 21.5 1.4 9.3 2.5 18 2.5 19.2 0 2.3-3.5 4.2-5.1 2.6-.7-.7-4.9-35.9-4.9-41.4 0-1-.4-1.9-1-1.9s-.8 5.3-.3 15l.6 15h-5.2l-.3-14.8c-.3-14.6-.3-14.7-2.6-15-2.1-.3-2.3-.1-1.8 2.5.5 2.7 2.6 18.9 2.6 20.5 0 .5-.9.8-1.9.8-2.3 0-2.7-1.7-3.7-13.8-.5-6.6-1.1-9.5-2.1-9.9-.8-.3-1.6-.3-1.9 0-.4.3.2 7.1 1.2 15.2 1.6 12.8 1.7 14.7.4 15.5-.8.5-1.9.8-2.5.7-.5-.2-1.6-6.4-2.3-13.8-1.8-18-1.8-17.9-4.7-17.9-3 0-3-.6-.5 16.3 1.1 7.4 2.1 16.3 2.2 19.8.3 6.2.2 6.4-2.3 6.7l-2.6.3-1.7-16.8c-2.6-26.1-2.7-26.3-4.4-26.3-1.2 0-1.4 1-.8 6.2.4 3.5.9 10.5 1.3 15.6l.6 9.4-2.4-.4c-2.3-.3-2.4-.6-3.2-12.3-1.1-17.2-1.4-18.5-3.9-18.5-1.6 0-1.9.5-1.5 2.2.3 1.3 1.1 6.3 1.8 11.1.9 6.7.9 9.1.1 9.9-2 2-3-.3-4.2-9.7-1.5-12.4-1.8-13.5-3.6-13.5-1.4 0-1.5.7-1 4.2.4 2.4 1.8 11.7 3.2 20.7 2.5 17.1 2.3 19.1-1.6 19.1-2.1 0-2.4-1.2-4.5-21.5-2-19.5-2.5-22.5-3.6-22.5-.6 0-.7 6.2-.3 16.1l.7 16.1-2.4-.4c-2.4-.3-2.4-.4-3-14.8-.4-8-.7-15.1-.8-15.8 0-.6-1-1.2-2.1-1.2-2.4 0-2.3-.3-.5 12.5 1.9 12.7 1.9 12.5-.4 12.5-2.2 0-2.7-1.7-3.6-12.5-1-11.1-1.4-12.5-3.7-12.5-2 0-2.1.4-1.4 6.7.3 3.8.9 13.9 1.3 22.5l.6 15.8h-2.5c-2.4 0-2.5-.2-3.2-9.2-.3-5-.6-15.1-.6-22.5 0-12.6-.1-13.3-2-13.3-2 0-2 .4-1.4 15.8.6 14.5.6 15.9-1 16.5-1 .4-2.2.5-2.7.1-.5-.3-.9-7.7-.9-16.5V514h-3.6c-3.2 0-3.6.2-3.1 2.2.3 1.3.7 6.8.8 12.3.3 9.3.2 10-1.6 10-1.9 0-2-.9-2.3-12.3-.2-11.7-.4-12.2-2.4-12.2s-2.1.3-1.4 8.2c.3 4.6.9 14.3 1.3 21.5l.6 13.3h-2.5c-2.2 0-2.6-.5-3.2-4.6-.3-2.6-.6-12.3-.6-21.5V514h-3c-1.6 0-3 .4-3 .8s.9 7 2 14.7c1.1 7.7 2 14.3 2 14.7 0 .5-1.1.8-2.5.8s-2.5-.6-2.5-1.3c0-.6-.7-7.1-1.5-14.2-.8-7.2-1.5-13.6-1.5-14.3 0-.6-1.2-1.2-2.6-1.2-2.2 0-2.5.4-2.1 2.2.3 1.3.9 6.2 1.3 10.9.6 7.3.4 8.7-.9 9.2-2.4.9-2.8-.3-3.4-11.8l-.6-10.5h-3.4c-1.8 0-3.3.3-3.3.6 0 .4 1.1 7.7 2.4 16.3 1.4 8.6 2.8 18.2 3.1 21.3.7 5.6.7 5.7-1.9 6.4-1.5.3-2.9.5-3.1.2-.2-.2-1.3-9.4-2.5-20.3-2.6-24.7-2.5-24.5-5-24.5-1.6 0-1.9.5-1.5 2.2 1.2 5.4 2.3 19.4 1.5 20.2-.5.5-1.5.6-2.3.3-1.1-.4-1.7-3.4-2.2-11.6-.7-10.9-.8-11.1-3.1-11.1H335l.7 15.2c.5 8.4.8 18.7.8 22.8 0 7.4 0 7.5-2.7 7.8l-2.8.3v-23c0-19.9-.2-23.1-1.5-23.1s-1.5 2.4-1.5 15.2c0 8.4-.4 15.9-.9 16.6-.5.8-1.7 1.2-2.7 1-1.8-.3-1.9-1.3-1.5-17.1l.4-16.9-2.9.4-2.9.3.3 7c.2 3.8 0 9.4-.3 12.2-.5 4.5-1 5.3-2.7 5.3-2 0-2.1-.3-1.4-12.6l.8-12.5-2.9.3c-1.5.2-2.7.8-2.6 1.5.1.6.6 10.3.9 21.6.7 20.3.7 20.5-1.4 21.1-1.2.4-2.6.4-3.2.1-.6-.4-1-8.9-1-22.6V513h-2.5c-1.4 0-2.5.1-2.5.2 0 .2.9 7 2 15.3 1.5 11.5 1.6 15.1.7 15.7-2.2 1.4-3.7.8-4.1-1.5-.5-2.3-2.6-25.2-2.6-28.1 0-1-.9-1.6-2.4-1.6h-2.4l.5 11.5c.6 11.3.6 11.5-1.6 11.5-2 0-2.1-.5-2.1-7.8 0-4.2-.3-9.4-.6-11.5-.6-3.1-1-3.7-3.2-3.7-2.4 0-2.4.2-1.8 4.7 1.6 13.2 3.7 37.6 3.2 38.9-.8 2.1-5.6 1.8-5.6-.4-.1-1.3-2.8-43-3-44 0-.1-1.1-.2-2.5-.2H271l.2 16.7c.3 16.8.3 16.8-1.9 17.1l-2.3.3V512h-7.2l.7 10.2c1.2 16.2 1.2 15.3-1 15.3-1.6 0-2.1-.7-2.2-3.5-.2-1.9-.6-7.7-.9-12.8-.5-8.4-.8-9.2-2.6-9.2-1.9 0-2 .4-1.5 4.2.4 2.4 1.5 10.4 2.6 17.8 3.6 24.9 3.5 23.9.6 24.6-1.4.3-2.8.5-3 .2-.3-.3-5.5-45.2-5.5-47.4 0-.2-.9-.4-2-.4s-2 .1-2 .2c0 .2.7 7 1.5 15.3 2 20.1 2 19.5-.9 19.5-2.7 0-2.8-.8-4.2-24.3-.6-9.6-.8-10.7-2.5-10.7-1.8 0-1.9 1-1.9 14 0 13.6-.1 14-2.1 14-2.1 0-2.2-.2-1.7-14 .4-11.4.3-14-.8-14-.9 0-1.4 1.1-1.4 2.7 0 5.4-2 36.9-2.5 41-.6 4-.9 4.3-3.6 4.3-3 0-3-.1-2.5-4.3.3-2.3 1.3-12.1 2.1-21.7.9-9.6 1.6-18.6 1.8-20 .2-2-.3-2.6-2.4-2.8l-2.7-.3-.6 9.8c-1.7 26-1.6 25.3-4.2 25.3-1.9 0-2.4-.5-2.4-2.4 0-2.4 1.5-19.2 2.5-27.9.6-4.7.5-4.7-2.4-4.7h-2.9l.5 9.8c.7 12.6-.2 19.4-2.5 19-1.5-.3-1.7-1.9-1.3-15.1.3-12.7.1-14.7-1.2-14.7-1.7 0-1.7.2-3.8 25.7-1.8 21.8-2 22.7-5.2 23.1-3.4.4-3.4 1 .1-27.1 2.6-20.2 2.7-21.7 1.1-21.7-1.4 0-1.9 1.3-2.4 6.7-1.4 12.8-4 27.6-5 28-.5.1-1.7-.1-2.5-.7-1.2-.8-1.1-3 1.3-17 1.5-8.9 2.5-16.5 2.2-17.1-.4-.5-1.5-.9-2.5-.9-2.1 0-2.4 1-4.1 16.2-1.2 10.4-1.3 10.8-3.6 10.8-2.2 0-2.4-.3-1.9-2.8.9-4.2 3.6-21.5 3.6-23 0-.6-.9-1.2-1.9-1.2-1.5 0-2.1 1-2.6 4.2-1.7 10.9-7.6 39.5-8.5 41.6-.8 1.8-1.5 2.2-3.3 1.6-1.2-.3-2.3-.8-2.5-.9-.2-.2 9-40.7 10.4-45.8.4-1.3-.1-1.7-1.8-1.7-2.2 0-2.5 1-6 16.2-2.1 8.9-4.2 16.6-4.7 17.1-.7.7-1.7.7-2.9.1-1.8-.9-1.7-1.6 2.4-16.4 2.4-8.5 4.3-15.8 4.4-16.1 0-.4-1.1-.9-2.5-1.1-1.4-.3-2.5-.3-2.5 0s-1 6.2-2.2 13c-1.4 8.1-2.6 12.6-3.5 12.9-3.1 1.2-3.2-1.4-.8-13 3-13.9 3-13.7.8-13.7-1.5 0-2.2 2.1-4.1 12.8-1.2 7-3.3 17.2-4.5 22.7-2.1 9.5-2.4 10-4.7 9.7-1.3-.1-2.6-.4-2.8-.7-.2-.2 1.8-10.2 4.6-22.1 2.8-12 4.9-22.1 4.6-22.6-1.7-2.8-3.3.2-5.8 11.2-1.5 6.6-3 12.2-3.5 12.4-.4.3-1.3.1-2-.4-1.1-.6-.9-2.8 1.4-11.9 1.5-6.2 2.5-11.4 2.3-11.6-.3-.3-5.4-1.2-11.4-2s-12.6-1.8-14.6-2.1c-3.5-.6-4.1-.3-11 6.1-8.4 7.8-19.6 17-25.3 20.8-4.2 2.9-10.1 3.6-14.9 1.7-3.9-1.5-3.2-3.2 3.4-8 5.9-4.2 8.2-6.7 3.8-3.8-8.4 5.3-14.8 8.8-16.2 8.8-1.6 0-2.1-1.6-1.7-5.8.2-2.7.1-2.7-4.4-.1-3.1 1.8-3.9 2-6.5.9-4.1-1.7-5.6-3.6-4.1-5.3.6-.8 10.7-6.3 22.5-12.3l21.3-10.9-8.6-4.1-8.6-4.2 276.6-.1 276.6-.1 2.2 2.4z"/><path d="M421.1 199.1c-14.9 13.3-27 24.4-26.7 24.6.2.2 12.3-1.9 26.9-4.8l26.4-5.3.7-18.9c.4-10.4.6-19.1.3-19.3-.2-.2-12.6 10.4-27.6 23.7zM453 194.1v18.5l9.8-1.8c5.3-1.1 10.3-2.1 11-2.3 1.2-.4-4.1-9.1-16.7-26.9l-4.1-5.9v18.4zM380.2 230.5c-34.8 6.7-63.7 12.6-64.2 13.1-1 1.1-26.1 67.6-25.6 68.1s49.1-42.9 49.4-44.2c.2-.6-1.3-3.5-3.3-6.3-1.9-2.9-3.3-5.2-3.1-5.2.3 0 11.9-2.2 25.8-4.9 69.1-13.5 82.5-16.1 84.5-16.6 1.9-.4 2.2 0 2.6 3.2.2 2.1.4-1.5.5-8 .2-10.6 0-11.7-1.5-11.6-1 .1-30.3 5.6-65.1 12.4zm65.6-3.8l-.3 5.6-57 11.2-57 11.2-2.5-2.2c-1.4-1.3-4-3.2-5.9-4.3-2.8-1.7-3-2.1-1.5-2.5 1.1-.3 18.3-3.8 38.4-7.7 20.1-3.9 47.3-9.3 60.5-12 13.2-2.6 24.4-4.8 24.8-4.9.4-.1.7 2.4.5 5.6zM445.4 255.5c0 6 .1 8.4.3 5.2.2-3.2.2-8.1 0-11-.2-2.9-.3-.3-.3 5.8z"/><path d="M314.4 293.9l-26.9 23.9-22.5 59.6c-12.3 32.8-22.7 60.2-23.1 60.8-.5.7-1.1 1-1.4.6-.4-.3 9.2-26.8 21.3-58.8 12.1-31.9 21.6-57.9 21.2-57.8-.4.2-25.3 22.1-55.4 48.8L173 419.5v7.7c0 4.2.4 8.8 1 10.2l1 2.6h57.2l-2.4 2.9c-1.7 2.2-3.2 3-5.5 3-3.2.1-3.3.3-3.3 4.1 0 3.6.2 4 2.5 4 1.7 0 3.9 1.4 6.4 4 3.5 3.7 4.2 4 9.1 4 4.9 0 5.6-.3 9.1-4 2.1-2.2 4.3-4 5-4 .6 0 2.9 1.5 5 3.4 4.8 4.4 9.5 5.4 14.2 3.1 2-.9 4.3-2.8 5.2-4.1 2-3.1 3-3 7.2.6 2.5 2.3 4.3 3 7.4 3 4.2 0 8.7-1.8 10.8-4.4 1.1-1.3 3.5-1.6 11.2-1.6h9.9v-8h-9.3c-9.1 0-9.4-.1-10.5-2.5-.7-1.4-1.2-2.8-1.2-3 0-.3 16.4-.5 36.5-.5s36.5-.2 36.5-.4 3.8-13.1 8.5-28.6c4.7-15.5 8.4-28.4 8.3-28.6-.6-.5-12.4 2.4-21.8 5.3-16.8 5.3-46.1 22.5-69 40.5-5.2 4.1-11.6 8.4-14.1 9.7-3.1 1.4-5.1 3.2-5.9 5.1-1.5 3.7-1.9 3.7-4.5.4l-2.1-2.7 7.5-3.8c10.4-5.3 19.8-12.5 31.6-24.4 9.1-9.1 22.2-25.1 21.4-26-.2-.2-17.6 11.7-38.6 26.3-27.4 19.2-38.6 27.6-39.9 29.9-2.4 4.3-6 4.4-9.2.2l-2.4-2.9h4.6c4.3 0 6.5-1.4 47.3-30l42.8-30 4.2-8.8c6.6-13.5 9.3-26.6 9.2-45.2 0-12.5-1.2-22.5-4-33.7-2-8-6.3-20-7.8-21.6-.4-.4-12.9 10-27.7 23.2zm-13.8 147.5c5.1 5.1 4.3 11.9-1.8 15.6-5.1 3.1-9.4 2.6-13.4-1.4-7.2-7.2-2.5-17.5 8-17.6 3 0 4.5.7 7.2 3.4zm-25.3 1.6c6.2 6.9 1.7 17-7.6 17-8.5 0-13.9-7.8-10.3-14.9 3.6-6.8 12.7-7.9 17.9-2.1zm-28.7.4c4.7 4.7 4.7 9.5 0 14.2-2.8 2.8-4.2 3.4-7.6 3.4-3.4 0-4.8-.6-7.6-3.4-4.1-4.1-4.6-8.9-1.3-13 4.5-5.7 11.5-6.2 16.5-1.2zM444.4 280.5c0 6 .1 8.4.3 5.2.2-3.2.2-8.1 0-11-.2-2.9-.3-.3-.3 5.8zM443.4 305c0 6.3.1 8.9.3 5.7.2-3.1.2-8.3 0-11.5-.2-3.1-.3-.5-.3 5.8zM442.4 330c0 6.3.1 8.9.3 5.7.2-3.1.2-8.3 0-11.5-.2-3.1-.3-.5-.3 5.8zM441.4 355c0 6.3.1 8.9.3 5.7.2-3.1.2-8.3 0-11.5-.2-3.1-.3-.5-.3 5.8zM98.5 363.6c-6.2 5.7-5.5 6.4 2.6 2.3 4.4-2.2 6.3-4.4 5.5-6.4-.8-2.3-1.6-1.9-8.1 4.1zM61.9 371.5c-3.4 1.1-6.1 3.1-10.1 7.3-5.7 6.2-7.3 9.9-8.4 19.3-1.3 10.8-.4 10.5 17-5.7 8.7-8 16-15.3 16.3-16.1.8-2.1-2.6-5.1-6.7-5.7-1.9-.3-5.6.1-8.1.9zM403.6 380.4l-7.8 1.1-8.8 29-8.8 29 11 .3c6.1.1 11.3.1 11.5-.2.6-.6 12.2-56.4 12.3-58.9 0-.9-.3-1.6-.7-1.6-.5.1-4.3.7-8.7 1.3zM61 439.8c0 1.7 1.6 2.3 10.5 4.6 5.7 1.4 10.7 2.6 11 2.6.3 0 .5-.8.5-1.9 0-1.5-1.6-2.2-8.7-3.9-4.9-1.2-9.8-2.4-11-2.8-1.8-.5-2.3-.2-2.3 1.4z"/><path d="M194 450v4h22v-8h-22v4zM328 450v4h23.1l-.3-3.8-.3-3.7-11.2-.3-11.3-.3v4.1zM356 450v4h7.9c7.5 0 7.9-.1 8.5-2.4.3-1.3.9-3.1 1.2-4 .5-1.4-.6-1.6-8.5-1.6H356v4zM375.6 448.4c-.3 1.3-.9 3.1-1.2 4-.4 1.2 0 1.6 1.5 1.6 1.8 0 2.1-.6 2.1-4 0-4.4-1.4-5.4-2.4-1.6zM383 450v4h7.5c7.3 0 7.5 0 8.1-2.8.3-1.5.7-3.3 1-4 .2-.9-1.8-1.2-8.1-1.2H383v4zM490 450v4h22v-8h-22v4zM517 450v4h27v-8h-27v4z"/></svg>