<?xml version="1.0" standalone="no"?>
<!DOCTYPE svg PUBLIC "-//W3C//DTD SVG 20010904//EN"
 "http://www.w3.org/TR/2001/REC-SVG-20010904/DTD/svg10.dtd">
<svg version="1.0" xmlns="http://www.w3.org/2000/svg"
 width="167.000000pt" height="167.000000pt" viewBox="0 0 167.000000 167.000000"
 preserveAspectRatio="xMidYMid meet">
<metadata>
Created by potrace 1.11, written by Peter Selinger 2001-2013
</metadata>
<g transform="translate(0.000000,167.000000) scale(0.100000,-0.100000)"
fill="#000000" stroke="none">
<path d="M785 1604 c-17 -8 -123 -108 -237 -222 -221 -220 -228 -230 -213
-309 5 -29 31 -61 128 -160 89 -91 118 -126 108 -132 -11 -7 -9 -13 9 -31 12
-12 28 -19 36 -16 8 3 14 1 14 -4 0 -6 6 -10 13 -10 7 0 42 -29 77 -65 56 -56
122 -96 136 -83 2 3 -14 10 -36 17 -22 6 -40 16 -40 22 0 6 7 6 18 2 9 -5 24
-8 32 -7 8 1 25 2 37 3 22 1 168 130 158 140 -3 3 -23 4 -43 3 -36 -2 -35 -2
19 21 81 34 114 61 139 112 36 75 18 147 -64 255 -54 70 -86 124 -86 141 1 8
7 1 14 -16 7 -16 38 -61 70 -100 73 -92 98 -143 98 -205 -1 -75 -47 -146 -112
-172 -14 -6 -20 -12 -13 -15 34 -12 151 84 173 143 11 29 12 91 2 116 -4 9
-34 45 -67 81 -76 81 -105 115 -105 124 0 3 -6 14 -12 23 -7 9 1 0 17 -19 17
-20 62 -70 101 -111 82 -86 94 -105 90 -143 -3 -27 -3 -27 17 -10 11 10 33 36
48 57 16 21 29 34 29 27 0 -23 -29 -68 -63 -98 -33 -28 -53 -53 -44 -53 11 0
90 86 103 112 16 31 11 103 -9 143 -12 25 -392 405 -427 428 -38 24 -82 29
-115 11z m85 -23 c14 -4 25 -11 26 -16 0 -6 92 -100 203 -210 112 -110 207
-210 212 -223 6 -15 4 -33 -5 -55 -15 -37 -47 -68 -53 -51 -6 17 -58 93 -103
149 -22 28 -40 58 -40 67 0 9 -5 20 -12 24 -8 5 -9 2 -5 -10 4 -10 3 -15 -4
-11 -5 4 -7 15 -4 25 10 30 -64 162 -88 157 -6 -1 -11 4 -12 12 0 14 -45 37
-45 23 0 -4 -4 0 -10 8 -12 19 -152 19 -175 0 -8 -7 -15 -9 -15 -4 0 4 -6 0
-13 -11 -11 -14 -16 -15 -22 -5 -5 9 -4 11 4 6 6 -4 10 -3 9 2 -4 15 79 91
107 98 14 3 32 4 40 1 8 -4 16 -3 19 1 8 13 -54 13 -79 0 -24 -13 -356 -337
-422 -412 -20 -23 -33 -33 -29 -23 3 10 6 22 6 27 0 9 356 368 409 413 33 27
54 31 101 18z m-181 -154 c-24 -18 -70 -107 -63 -119 4 -6 2 -8 -3 -5 -6 4
-31 -4 -55 -18 -23 -14 -47 -25 -52 -25 -5 0 32 41 82 90 50 50 94 90 99 90 4
0 1 -6 -8 -13z m-26 -72 c-3 -9 -8 -14 -10 -11 -3 3 -2 9 2 15 9 16 15 13 8
-4z m204 -65 c15 -22 32 -40 37 -40 5 0 3 6 -3 14 -7 8 -8 17 -3 20 13 8 86
-68 132 -136 47 -71 53 -124 20 -189 -21 -41 -86 -119 -100 -119 -4 0 10 18
32 40 52 56 78 110 77 162 l-1 43 -7 -35 c-15 -75 -46 -111 -161 -192 -85 -60
-122 -100 -122 -133 0 -14 -4 -28 -9 -31 -12 -7 -11 19 2 53 14 39 42 67 129
131 103 76 134 111 147 168 11 49 6 72 -23 101 -6 7 -22 29 -34 49 -18 27 -25
33 -32 22 -8 -10 -9 -9 -5 3 9 28 -13 40 -39 22 -31 -20 -31 -37 1 -29 29 7
32 -1 8 -20 -17 -13 -17 -14 -1 -8 12 4 20 0 24 -11 5 -12 9 -13 14 -4 12 19
43 -49 43 -94 0 -54 -20 -85 -81 -123 -29 -19 -55 -34 -57 -34 -14 0 -85 -52
-85 -62 0 -6 9 -3 20 7 34 31 28 12 -7 -22 -31 -29 -47 -33 -20 -4 10 11 9 13
-3 9 -12 -5 -16 3 -17 34 -1 22 -11 55 -22 74 -11 19 -18 34 -16 34 11 0 45
-66 45 -87 0 -30 13 -29 29 0 11 21 9 27 -23 59 -20 20 -36 42 -36 50 0 8 14
27 31 44 34 32 55 68 63 105 3 13 8 35 12 48 6 19 4 22 -7 16 -9 -5 -8 -2 3
11 13 14 14 23 6 38 -8 14 -8 17 2 11 9 -6 9 -3 1 13 -26 49 0 43 36 -8z
m-132 -14 c-9 -46 -40 -76 -129 -125 -72 -40 -98 -62 -110 -94 -5 -16 -1 -15
23 5 15 14 44 30 62 37 97 35 142 65 160 105 10 23 19 35 19 28 0 -19 -25 -65
-48 -85 -11 -10 -50 -31 -88 -47 -94 -39 -114 -60 -114 -119 -1 -63 -19 -32
-21 37 -3 69 14 91 118 153 97 57 109 69 119 117 3 18 8 31 11 28 2 -2 1 -20
-2 -40z m68 9 c-3 -9 -8 -14 -10 -11 -3 3 -2 9 2 15 9 16 15 13 8 -4z m87 5
c0 -5 -2 -10 -4 -10 -3 0 -8 5 -11 10 -3 6 -1 10 4 10 6 0 11 -4 11 -10z
m-334 -35 c-11 -8 -23 -15 -28 -15 -4 0 -8 -4 -8 -10 0 -5 20 -1 45 10 25 11
45 17 45 14 0 -5 -67 -35 -85 -38 -5 -1 -15 -5 -20 -8 -6 -4 -17 -3 -25 2 -9
6 1 15 36 34 56 29 68 32 40 11z m83 -38 c-37 -32 -154 -103 -145 -88 3 4 35
26 72 47 37 21 74 49 83 61 9 11 18 19 21 16 3 -3 -11 -19 -31 -36z m148 -9
c-8 -31 -66 -118 -79 -118 -5 0 1 13 15 29 13 16 33 50 43 75 19 46 31 54 21
14z m-307 -11 c0 -2 -10 -12 -22 -23 l-23 -19 19 23 c18 21 26 27 26 19z m-94
-106 c-1 -38 -4 -47 -13 -39 -7 6 -13 16 -13 24 0 11 20 64 25 64 1 0 1 -22 1
-49z m399 22 c-15 -22 -63 -73 -70 -73 -1 0 -2 7 -2 14 0 8 5 14 11 13 6 -1
10 4 8 11 -1 8 1 11 6 8 5 -3 19 8 31 24 27 37 40 40 16 3z m-372 -48 c5 -56
4 -58 -7 -26 -7 19 -10 47 -8 63 6 39 8 33 15 -37z m668 48 c13 -16 12 -17 -3
-4 -10 7 -18 15 -18 17 0 8 8 3 21 -13z m-56 -22 c2 -12 0 -19 -6 -16 -5 4 -9
16 -9 27 0 26 9 19 15 -11z m-365 -41 c-8 -5 -22 -9 -30 -9 -10 0 -8 3 5 9 27
12 43 12 25 0z m351 -17 c-12 -20 -14 -14 -5 12 4 9 9 14 11 11 3 -2 0 -13 -6
-23z m-401 4 c0 -2 -11 -14 -25 -27 -14 -13 -25 -21 -25 -17 0 3 10 15 22 27
21 19 28 24 28 17z m490 -67 c0 -5 -5 -10 -11 -10 -5 0 -7 5 -4 10 3 6 8 10
11 10 2 0 4 -4 4 -10z m-467 -15 c-3 -9 -8 -14 -10 -11 -3 3 -2 9 2 15 9 16
15 13 8 -4z m433 -69 c-24 -41 -65 -79 -113 -105 -13 -6 -23 -8 -23 -2 0 5 10
11 23 15 34 8 92 69 113 116 10 23 20 37 22 31 2 -6 -8 -31 -22 -55z m-459 -6
c13 0 22 -4 18 -9 -7 -12 12 -24 25 -16 6 4 5 16 -1 33 -8 22 -8 25 2 15 13
-13 17 -27 23 -76 4 -28 -25 -67 -48 -67 -8 0 -7 3 0 8 14 9 34 47 34 64 -1 7
-7 0 -13 -16 l-13 -30 -21 23 c-13 14 -26 20 -34 16 -8 -5 -10 -4 -5 4 4 6 2
19 -6 28 -11 15 -11 16 7 9 28 -10 13 3 -26 22 -18 10 -35 23 -37 30 -2 7 13
1 33 -13 21 -14 49 -25 62 -25z m104 5 c7 -13 3 -12 -10 5 -11 14 -21 30 -21
35 0 11 14 -7 31 -40z m8 -101 c-10 -13 -10 -17 1 -24 8 -5 11 -12 8 -16 -4
-3 -1 -19 7 -34 17 -33 45 -36 45 -4 0 12 3 29 6 38 5 14 9 14 37 0 23 -12 48
-15 95 -11 l65 5 -52 -52 c-46 -46 -55 -51 -96 -51 -40 0 -49 5 -98 53 -40 39
-58 51 -73 47 -13 -4 -11 -2 5 8 27 16 49 52 52 82 1 17 2 17 6 -3 3 -13 -1
-30 -8 -38z m-114 -14 c3 -5 -1 -10 -9 -10 -9 0 -16 5 -16 10 0 6 4 10 9 10 6
0 13 -4 16 -10z"/>
<path d="M805 1007 c-17 -13 -17 -15 6 -30 30 -21 58 -21 88 -1 l24 17 -24 13
c-31 17 -70 17 -94 1z"/>
<path d="M695 750 c-3 -5 -1 -10 4 -10 6 0 11 5 11 10 0 6 -2 10 -4 10 -3 0
-8 -4 -11 -10z"/>
<path d="M1182 840 c-39 -46 -114 -84 -145 -74 -21 6 -21 6 -5 -13 17 -19 15
-22 -56 -91 -41 -40 -82 -72 -90 -72 -9 0 -16 -5 -16 -10 0 -21 58 21 126 90
38 39 86 80 106 91 44 23 105 74 119 100 16 31 -4 20 -39 -21z"/>
<path d="M85 510 c-62 -25 -91 -112 -62 -182 28 -68 109 -94 181 -58 99 48
109 190 16 237 -28 14 -105 16 -135 3z m129 -36 c59 -60 36 -181 -39 -200 -88
-22 -159 101 -108 187 30 51 102 57 147 13z"/>
<path d="M310 509 c0 -5 6 -9 13 -9 11 0 14 -24 13 -107 -1 -60 -5 -114 -9
-120 -6 -10 7 -13 58 -13 60 0 69 3 96 29 16 16 29 40 29 54 0 26 -28 57 -51
57 -9 0 -7 6 7 18 33 26 39 57 14 82 -18 18 -32 21 -96 19 -40 -1 -74 -6 -74
-10z m141 -35 c12 -34 -12 -64 -50 -64 -24 0 -26 3 -27 45 0 44 1 45 33 45 27
0 35 -5 44 -26z m3 -100 c28 -28 15 -79 -23 -92 -44 -15 -57 -3 -57 56 1 52 1
52 33 52 17 0 39 -7 47 -16z"/>
<path d="M653 503 c-24 -69 -97 -220 -111 -230 -13 -11 -9 -13 29 -13 34 1 40
3 27 10 -14 9 -15 16 -6 40 5 17 13 31 16 31 24 4 94 4 101 -1 4 -3 13 -20 19
-37 10 -29 9 -33 -6 -33 -12 0 -13 -3 -5 -8 7 -4 29 -6 50 -4 30 4 34 7 22 16
-9 6 -37 64 -64 129 -27 64 -53 117 -57 117 -5 0 -11 -8 -15 -17z m27 -89 c11
-25 20 -48 20 -50 0 -2 -18 -4 -40 -4 -22 0 -40 3 -40 7 0 10 34 93 38 93 1 0
12 -21 22 -46z"/>
<path d="M820 511 c0 -5 8 -11 17 -13 15 -3 18 -17 18 -112 1 -100 -1 -109
-20 -116 -27 -12 -17 -12 107 -11 114 2 148 -7 148 -39 0 -11 5 -20 10 -20 6
0 10 15 10 34 0 25 -5 35 -20 39 -18 5 -20 14 -20 116 0 92 3 111 15 111 8 0
15 4 15 9 0 4 -22 9 -50 10 -27 0 -50 -4 -50 -9 0 -6 7 -10 15 -10 17 0 17 0
19 -118 0 -46 -2 -89 -5 -94 -6 -9 -62 -13 -120 -9 -13 1 -16 17 -15 111 0 83
3 110 13 110 7 0 13 5 13 10 0 6 -22 10 -50 10 -27 0 -50 -4 -50 -9z"/>
<path d="M1124 509 c-3 -5 4 -9 14 -9 19 0 20 -7 19 -120 0 -66 2 -123 6 -126
11 -12 40 21 108 121 35 52 66 95 69 95 3 0 4 -30 3 -67 -1 -38 -2 -82 -2
-100 -1 -21 -7 -33 -18 -36 -10 -3 9 -5 42 -5 45 -1 54 1 38 8 -22 9 -23 15
-23 120 0 91 3 110 15 110 8 0 15 4 15 10 0 5 -15 9 -32 7 -30 -2 -40 -13
-101 -102 -37 -55 -71 -101 -75 -103 -4 -1 -7 39 -7 90 0 63 4 93 13 96 6 2
12 7 12 12 0 11 -88 11 -96 -1z"/>
<path d="M1491 507 c-13 -6 -28 -23 -32 -35 -8 -20 -3 -30 26 -59 l35 -35 -46
-59 c-43 -56 -44 -59 -22 -59 17 0 35 15 63 52 22 28 45 57 52 63 15 16 7 25
-22 25 -33 0 -51 29 -46 77 1 14 50 31 74 25 15 -3 17 -17 17 -112 0 -91 -3
-111 -17 -118 -12 -7 -5 -11 31 -13 26 -3 50 -1 52 3 3 5 -2 8 -10 8 -14 0
-16 18 -16 115 0 96 3 115 15 115 8 0 15 4 15 9 0 14 -142 12 -169 -2z"/>
<path d="M333 138 c-11 -15 -11 -28 0 -45 10 -15 43 -17 52 -3 4 6 -4 9 -17 7
-17 -1 -23 3 -23 18 0 15 6 19 23 18 13 -2 21 1 17 7 -9 14 -41 12 -52 -2z"/>
<path d="M405 140 c4 -6 11 -8 16 -5 5 4 15 3 21 -1 9 -6 5 -10 -12 -14 -36
-8 -32 -34 6 -38 32 -3 33 0 25 61 -1 4 -15 7 -32 7 -18 0 -28 -4 -24 -10z
m40 -40 c-3 -5 -10 -10 -16 -10 -5 0 -9 5 -9 10 0 6 7 10 16 10 8 0 12 -4 9
-10z"/>
<path d="M487 118 c-6 -44 0 -49 14 -10 14 40 29 41 29 2 0 -16 5 -30 10 -30
6 0 10 16 10 35 0 32 -3 35 -29 35 -25 0 -29 -4 -34 -32z"/>
<path d="M573 138 c-14 -19 -10 -39 8 -51 34 -21 74 18 49 48 -15 18 -44 19
-57 3z m44 -14 c8 -21 -13 -42 -28 -27 -13 13 -5 43 11 43 6 0 13 -7 17 -16z"/>
<path d="M660 117 c0 -23 4 -36 10 -32 6 4 8 11 5 16 -4 5 3 9 14 9 13 0 21
-7 21 -17 0 -9 3 -13 7 -9 10 10 11 56 1 62 -4 3 -8 -2 -8 -10 0 -21 -20 -20
-36 2 -12 15 -13 13 -14 -21z"/>
<path d="M784 115 c-1 -19 3 -35 7 -35 5 0 9 7 9 15 0 8 4 15 9 15 5 0 11 -7
15 -15 3 -8 10 -15 16 -15 6 0 6 7 -2 19 -9 15 -9 23 1 35 9 11 10 16 2 16 -6
0 -14 -7 -17 -15 -4 -8 -10 -15 -15 -15 -5 0 -9 7 -9 15 0 32 -15 13 -16 -20z"/>
<path d="M869 148 c-6 -13 -3 -98 3 -98 4 0 8 6 8 14 0 7 14 16 30 20 23 4 30
11 30 30 0 13 -7 27 -16 30 -15 6 -53 8 -55 4z m50 -22 c9 -10 8 -16 -4 -26
-19 -16 -41 1 -32 24 8 20 21 20 36 2z"/>
<path d="M954 138 c-5 -8 -2 -9 10 -5 10 4 23 4 29 0 7 -4 2 -9 -13 -13 -36
-9 -32 -35 5 -35 30 0 34 10 20 53 -5 15 -41 16 -51 0z m41 -38 c-3 -5 -10
-10 -16 -10 -5 0 -9 5 -9 10 0 6 7 10 16 10 8 0 12 -4 9 -10z"/>
<path d="M1034 136 c-10 -27 1 -51 25 -54 13 -2 28 1 33 6 7 7 16 7 28 0 34
-22 75 17 50 47 -18 22 -48 18 -61 -7 -23 -45 -59 -52 -59 -12 0 21 4 25 20
21 11 -3 20 -1 20 4 0 15 -50 10 -56 -5z m123 -12 c8 -21 -13 -42 -28 -27 -13
13 -5 43 11 43 6 0 13 -7 17 -16z"/>
<path d="M1192 143 c13 -3 17 -12 14 -34 -2 -16 1 -29 5 -29 9 0 11 5 13 38 0
9 7 20 16 24 8 4 -3 6 -25 6 -22 0 -32 -2 -23 -5z"/>
<path d="M1260 116 c0 -36 0 -36 40 -34 38 3 40 5 40 36 0 20 -4 31 -10 27 -6
-4 -7 -11 -4 -17 8 -12 -34 -1 -53 14 -10 8 -13 2 -13 -26z m40 -11 c0 -8 -4
-15 -9 -15 -13 0 -22 16 -14 24 11 11 23 6 23 -9z"/>
</g>
</svg>
