<svg width="162" height="164" viewBox="0 0 162 164" fill="none" xmlns="http://www.w3.org/2000/svg">
<ellipse cx="81" cy="82.0159" rx="64" ry="65.0159" fill="#F24F00"/>
<path fill-rule="evenodd" clip-rule="evenodd" d="M81 162.5C102.236 162.5 121.527 154.07 135.788 140.331C135.987 140.14 136.304 140.146 136.495 140.344C136.687 140.543 136.681 140.86 136.482 141.051C122.043 154.961 102.507 163.5 81 163.5C36.5352 163.5 0.5 127.005 0.5 82C0.5 36.9947 36.5352 0.5 81 0.5C125.465 0.5 161.5 36.9947 161.5 82C161.5 101.125 154.992 118.714 144.096 132.617C143.926 132.835 143.612 132.873 143.394 132.702C143.177 132.532 143.139 132.218 143.309 132C154.072 118.268 160.5 100.895 160.5 82C160.5 37.5352 124.901 1.5 81 1.5C37.0992 1.5 1.5 37.5352 1.5 82C1.5 126.465 37.0992 162.5 81 162.5Z" fill="#F24F00"/>
<path fill-rule="evenodd" clip-rule="evenodd" d="M81 14.5C63.2415 14.5 47.1083 21.5639 35.177 33.0828C34.581 33.6582 33.6314 33.6415 33.056 33.0455C32.4806 32.4495 32.4973 31.4999 33.0933 30.9246C45.557 18.8916 62.4275 11.5 81 11.5C119.404 11.5 150.5 43.0846 150.5 82C150.5 120.915 119.404 152.5 81 152.5C42.5956 152.5 11.5 120.915 11.5 82C11.5 65.4614 17.116 50.2472 26.5211 38.2202C27.0314 37.5677 27.9741 37.4523 28.6267 37.9627C29.2793 38.473 29.3946 39.4157 28.8843 40.0683C19.8796 51.5833 14.5 66.1509 14.5 82C14.5 119.3 44.2936 149.5 81 149.5C117.706 149.5 147.5 119.3 147.5 82C147.5 44.7001 117.706 14.5 81 14.5Z" fill="#F24F00"/>
<g clip-path="url(#clip0)">
<path d="M84.4023 108.926H77.6739C76.8326 108.926 76.1505 109.608 76.1505 110.449C76.1505 111.29 76.8326 111.973 77.6739 111.973H84.4023C85.2435 111.973 85.9257 111.29 85.9257 110.449C85.9257 109.608 85.2437 108.926 84.4023 108.926Z" fill="white"/>
<path d="M96.7021 50.4747C96.4189 50.1915 96.0258 50.0283 95.6252 50.0283C95.2245 50.0283 94.8315 50.1913 94.5481 50.4747C94.2648 50.758 94.1017 51.1511 94.1017 51.5518C94.1017 51.9541 94.2646 52.3455 94.5481 52.6288C94.8315 52.9137 95.2245 53.0752 95.6252 53.0752C96.0258 53.0752 96.4187 52.9139 96.7021 52.6288C96.9855 52.3455 97.1486 51.9524 97.1486 51.5518C97.1486 51.1511 96.9856 50.7594 96.7021 50.4747Z" fill="white"/>
<path d="M118.477 62.4587C119.318 62.4587 120 61.7765 120 60.9353V51.5518C120 50.957 119.658 50.443 119.161 50.1923C119.154 50.1882 119.147 50.1839 119.139 50.1798L96.2872 39.151C95.8689 38.949 95.3812 38.949 94.9629 39.151L72.1114 50.1798C71.5849 50.4339 71.2502 50.9671 71.2502 51.5518C71.2502 52.1365 71.5849 52.6697 72.1114 52.9238L81.0177 57.2222V66.6446C81.0177 66.7161 81.0235 66.7866 81.0332 66.8561H80.6098C77.8107 66.8561 75.5333 69.1335 75.5333 71.9328C75.5333 74.732 77.8107 77.0093 80.6098 77.0093H81.1019C81.5649 81.3277 83.9171 85.0883 87.3134 87.447H73.1214C72.2299 87.447 71.3871 87.6592 70.6408 88.0355V65.5526C70.6408 64.1847 71.7536 63.072 73.1214 63.072H77.0567C77.898 63.072 78.5802 62.3898 78.5802 61.5486C78.5802 60.7074 77.898 60.0252 77.0567 60.0252H73.1214C71.5468 60.0252 70.1251 60.688 69.1173 61.748C68.1096 60.688 66.6879 60.0252 65.1133 60.0252H43.5234C42.6822 60.0252 42 60.7074 42 61.5486V88.9705V94.914C42 95.7552 42.6822 96.4374 43.5234 96.4374H45.3511V103.898H43.5234C42.6822 103.898 42 104.58 42 105.421V108.164C42 113.036 45.9638 117 50.8359 117H111.164C116.036 117 120 113.036 120 108.164V105.421C120 104.58 119.318 103.898 118.477 103.898H116.648V81.5035C116.648 80.6622 115.966 79.98 115.125 79.98C114.283 79.98 113.601 80.6622 113.601 81.5035V103.898H48.398V96.4373H94.7109C95.5522 96.4373 96.2344 95.7551 96.2344 94.9139V90.0357C103.483 89.7366 109.385 84.1308 110.148 77.0093H110.64C113.439 77.0093 115.717 74.732 115.717 71.9328C115.717 69.1335 113.439 66.8561 110.64 66.8561H110.217C110.227 66.7866 110.232 66.7162 110.232 66.6446V57.2222L116.953 53.9786V60.9353C116.953 61.7767 117.635 62.4587 118.477 62.4587ZM81.0175 73.9626H80.6097C79.4906 73.9626 78.58 73.0522 78.58 71.933C78.58 70.8137 79.4906 69.9031 80.6097 69.9031H81.0175V73.9626ZM45.0469 63.072H65.1131C66.481 63.072 67.5938 64.1849 67.5938 65.5526V88.0355C66.8474 87.6591 66.0045 87.447 65.1131 87.447H45.0469V63.072ZM116.953 106.945V108.164C116.953 111.356 114.356 113.953 111.164 113.953H50.8359C47.6439 113.953 45.0469 111.356 45.0469 108.164V106.945H116.953ZM45.0469 93.3904V90.4939H65.1131C66.481 90.4939 67.5938 91.6068 67.5938 92.9745C67.5938 93.1189 67.6152 93.2582 67.6527 93.3904H45.0469ZM110.232 69.903H110.64C111.759 69.903 112.67 70.8137 112.67 71.9328C112.67 73.0521 111.759 73.9625 110.64 73.9625H110.232V69.903ZM93.1875 93.3907H70.5817V93.3906C70.6193 93.2582 70.6406 93.1189 70.6406 92.9747C70.6406 91.6068 71.7535 90.4941 73.1212 90.4941H93.1875V93.3907ZM107.185 75.4419C107.186 81.8166 102 87.0026 95.625 87.0026C89.2505 87.0026 84.0644 81.8166 84.0644 75.4419V68.9795L95.0114 73.7957C95.2068 73.8816 95.4158 73.9247 95.6248 73.9247C95.8339 73.9247 96.0429 73.8817 96.2383 73.7957L107.185 68.9795V75.4419ZM107.186 65.6508L95.625 70.7367L84.0644 65.6506V58.6928L94.9628 63.9526C95.1719 64.0536 95.3985 64.104 95.625 64.104C95.8515 64.104 96.0781 64.0536 96.2872 63.9526L107.186 58.6928V65.6508ZM99.9097 53.0752H111.815L95.625 60.8891L76.2784 51.5519L95.625 42.2147L111.815 50.0284H99.9097C99.0684 50.0284 98.3862 50.7106 98.3862 51.5518C98.3862 52.3932 99.0684 53.0752 99.9097 53.0752Z" fill="white"/>
<path d="M119.553 66.6534C119.27 66.3702 118.877 66.207 118.477 66.207C118.076 66.207 117.683 66.37 117.399 66.6534C117.116 66.9368 116.953 67.3298 116.953 67.7305C116.953 68.1311 117.116 68.5242 117.399 68.8075C117.683 69.0907 118.076 69.2539 118.477 69.2539C118.877 69.2539 119.27 69.0909 119.553 68.8075C119.837 68.5242 120 68.1311 120 67.7305C120 67.3298 119.837 66.9369 119.553 66.6534Z" fill="white"/>
<path d="M62.3958 77.837C62.1109 77.5536 61.7194 77.3906 61.3187 77.3906C60.9181 77.3906 60.525 77.5535 60.2418 77.837C59.9569 78.1219 59.7953 78.5134 59.7953 78.9141C59.7953 79.3147 59.9569 79.7078 60.2418 79.991C60.525 80.2759 60.9167 80.4375 61.3187 80.4375C61.7194 80.4375 62.1124 80.2759 62.3958 79.991C62.6792 79.7078 62.8422 79.3161 62.8422 78.9141C62.8422 78.5134 62.6793 78.1204 62.3958 77.837Z" fill="white"/>
<path d="M55.5586 77.3931H50.6836C49.8424 77.3931 49.1602 78.0753 49.1602 78.9165C49.1602 79.7577 49.8424 80.4399 50.6836 80.4399H55.5586C56.3998 80.4399 57.082 79.7577 57.082 78.9165C57.082 78.0753 56.4 77.3931 55.5586 77.3931Z" fill="white"/>
<path d="M61.3183 70.0801H50.6836C49.8424 70.0801 49.1602 70.7623 49.1602 71.6035C49.1602 72.4448 49.8424 73.127 50.6836 73.127H61.3183C62.1595 73.127 62.8417 72.4448 62.8417 71.6035C62.8417 70.7623 62.1595 70.0801 61.3183 70.0801Z" fill="white"/>
</g>
<defs>
<clipPath id="clip0">
<rect width="78" height="78" fill="white" transform="translate(42 39)"/>
</clipPath>
</defs>
</svg>
