<svg width="162" height="164" viewBox="0 0 162 164" fill="none" xmlns="http://www.w3.org/2000/svg">
<ellipse cx="81" cy="82.0159" rx="64" ry="65.0159" fill="#F24F00"/>
<path fill-rule="evenodd" clip-rule="evenodd" d="M81 162.5C102.236 162.5 121.527 154.07 135.788 140.331C135.987 140.14 136.304 140.146 136.495 140.344C136.687 140.543 136.681 140.86 136.482 141.051C122.043 154.961 102.507 163.5 81 163.5C36.5352 163.5 0.5 127.005 0.5 82C0.5 36.9947 36.5352 0.5 81 0.5C125.465 0.5 161.5 36.9947 161.5 82C161.5 101.125 154.992 118.714 144.096 132.617C143.926 132.835 143.612 132.873 143.394 132.702C143.177 132.532 143.139 132.218 143.309 132C154.072 118.268 160.5 100.895 160.5 82C160.5 37.5352 124.901 1.5 81 1.5C37.0992 1.5 1.5 37.5352 1.5 82C1.5 126.465 37.0992 162.5 81 162.5Z" fill="#F24F00"/>
<path fill-rule="evenodd" clip-rule="evenodd" d="M81 14.5C63.2415 14.5 47.1083 21.5639 35.177 33.0828C34.581 33.6582 33.6314 33.6415 33.056 33.0455C32.4806 32.4495 32.4973 31.4999 33.0933 30.9246C45.557 18.8916 62.4275 11.5 81 11.5C119.404 11.5 150.5 43.0846 150.5 82C150.5 120.915 119.404 152.5 81 152.5C42.5956 152.5 11.5 120.915 11.5 82C11.5 65.4614 17.116 50.2472 26.5211 38.2202C27.0314 37.5677 27.9741 37.4523 28.6267 37.9627C29.2793 38.473 29.3946 39.4157 28.8843 40.0683C19.8796 51.5833 14.5 66.1509 14.5 82C14.5 119.3 44.2936 149.5 81 149.5C117.706 149.5 147.5 119.3 147.5 82C147.5 44.7001 117.706 14.5 81 14.5Z" fill="#F24F00"/>
<path d="M98.9 77.5C86.6947 77.5 76.8 87.3947 76.8 99.6C76.8 111.805 86.6947 121.7 98.9 121.7C111.105 121.7 121 111.805 121 99.6C120.987 87.4004 111.1 77.5133 98.9 77.5ZM98.9 119.1C88.1306 119.1 79.4 110.369 79.4 99.6C79.4 88.8306 88.1306 80.1 98.9 80.1C109.669 80.1 118.4 88.8306 118.4 99.6C118.388 110.364 109.664 119.088 98.9 119.1Z" fill="white"/>
<path d="M100.2 95.9392V87.8999H97.6V95.9392C96.4987 96.3321 95.6322 97.1986 95.2393 98.2999H89.8V100.9H95.2393C95.8404 102.611 97.5448 103.68 99.3475 103.476C101.15 103.272 102.572 101.85 102.777 100.047C102.98 98.2447 101.911 96.5403 100.2 95.9392ZM98.9 100.9C98.1821 100.9 97.6 100.318 97.6 99.5999C97.6 98.882 98.1821 98.2999 98.9 98.2999C99.6179 98.2999 100.2 98.882 100.2 99.5999C100.2 100.318 99.6179 100.9 98.9 100.9Z" fill="white"/>
<path d="M82 98.3H84.6V100.9H82V98.3Z" fill="white"/>
<path d="M97.6 113.9H100.2V116.5H97.6V113.9Z" fill="white"/>
<path d="M113.2 98.3H115.8V100.9H113.2V98.3Z" fill="white"/>
<path d="M97.6 82.7H100.2V85.2999H97.6V82.7Z" fill="white"/>
<path d="M45.6 102.2V64.5H105.4V76.2001H108V58C107.996 54.4117 105.088 51.5045 101.5 51.5H92.4V50.2C92.4 48.0463 90.6538 46.3 88.5 46.3C86.3462 46.3 84.6 48.0463 84.6 50.2V51.5H66.4V50.2C66.4 48.0463 64.6538 46.3 62.5 46.3C60.3462 46.3 58.6 48.0463 58.6 50.2V51.5H49.5C45.9117 51.5045 43.0044 54.4117 43 58V102.2C43.0044 105.788 45.9117 108.696 49.5 108.7H75.5V106.1H49.5C47.3462 106.1 45.6 104.354 45.6 102.2ZM87.2 50.2C87.2 49.4821 87.7821 48.9 88.5 48.9C89.2179 48.9 89.8 49.4821 89.8 50.2V55.4C89.8 56.118 89.2179 56.7 88.5 56.7C87.7821 56.7 87.2 56.118 87.2 55.4V50.2ZM61.2 50.2C61.2 49.4821 61.7821 48.9 62.5 48.9C63.2179 48.9 63.8 49.4821 63.8 50.2V55.4C63.8 56.118 63.2179 56.7 62.5 56.7C61.7821 56.7 61.2 56.118 61.2 55.4V50.2ZM49.5 54.1H58.6V55.4C58.6 57.5538 60.3462 59.3 62.5 59.3C64.6538 59.3 66.4 57.5538 66.4 55.4V54.1H84.6V55.4C84.6 57.5538 86.3462 59.3 88.5 59.3C90.6538 59.3 92.4 57.5538 92.4 55.4V54.1H101.5C103.654 54.1 105.4 55.8463 105.4 58V61.9H45.6V58C45.6 55.8463 47.3462 54.1 49.5 54.1Z" fill="white"/>
<path d="M61.2 74.9C61.2 73.4642 60.0358 72.3 58.6 72.3H53.4C51.9642 72.3 50.8 73.4642 50.8 74.9V80.1C50.8 81.5359 51.9642 82.7001 53.4 82.7001H58.6C60.0358 82.7001 61.2 81.5359 61.2 80.1V74.9ZM53.4 80.1V74.9H58.6V80.1H53.4Z" fill="white"/>
<path d="M74.2 74.9C74.2 73.4642 73.0358 72.3 71.6 72.3H66.4C64.9642 72.3 63.8 73.4642 63.8 74.9V80.1C63.8 81.5359 64.9642 82.7001 66.4 82.7001H71.6C73.0358 82.7001 74.2 81.5359 74.2 80.1V74.9ZM66.4 80.1V74.9H71.6V80.1H66.4Z" fill="white"/>
<path d="M87.2 78.8V74.9C87.2 73.4642 86.0358 72.3 84.6 72.3H79.4C77.9642 72.3 76.8 73.4642 76.8 74.9V80.1C76.8 81.5359 77.9642 82.7001 79.4 82.7001H82V80.1H79.4V74.9H84.6V78.8H87.2Z" fill="white"/>
<path d="M58.6 87.8999H53.4C51.9642 87.8999 50.8 89.0641 50.8 90.4999V95.6999C50.8 97.1357 51.9642 98.2999 53.4 98.2999H58.6C60.0358 98.2999 61.2 97.1357 61.2 95.6999V90.4999C61.2 89.0641 60.0358 87.8999 58.6 87.8999ZM53.4 95.6999V90.4999H58.6V95.6999H53.4Z" fill="white"/>
<path d="M71.6 87.8999H66.4C64.9642 87.8999 63.8 89.0641 63.8 90.4999V95.6999C63.8 97.1357 64.9642 98.2999 66.4 98.2999H71.6C73.0358 98.2999 74.2 97.1357 74.2 95.6999V90.4999C74.2 89.0641 73.0358 87.8999 71.6 87.8999ZM66.4 95.6999V90.4999H71.6V95.6999H66.4Z" fill="white"/>
<path d="M100.2 76.2001V74.9C100.2 73.4642 99.0358 72.3 97.6 72.3H92.4C90.9642 72.3 89.8 73.4642 89.8 74.9V76.2001H92.4V74.9H97.6V76.2001H100.2Z" fill="white"/>
</svg>
