<svg width="162" height="164" viewBox="0 0 162 164" fill="none" xmlns="http://www.w3.org/2000/svg">
<ellipse cx="81" cy="82.0159" rx="64" ry="65.0159" fill="#333333"/>
<path fill-rule="evenodd" clip-rule="evenodd" d="M81 162.5C102.236 162.5 121.527 154.07 135.788 140.331C135.987 140.14 136.304 140.146 136.495 140.344C136.687 140.543 136.681 140.86 136.482 141.051C122.043 154.961 102.507 163.5 81 163.5C36.5352 163.5 0.5 127.005 0.5 82C0.5 36.9947 36.5352 0.5 81 0.5C125.465 0.5 161.5 36.9947 161.5 82C161.5 101.125 154.992 118.714 144.096 132.617C143.926 132.835 143.612 132.873 143.394 132.702C143.177 132.532 143.139 132.218 143.309 132C154.072 118.268 160.5 100.895 160.5 82C160.5 37.5352 124.901 1.5 81 1.5C37.0992 1.5 1.5 37.5352 1.5 82C1.5 126.465 37.0992 162.5 81 162.5Z" fill="#333333"/>
<path fill-rule="evenodd" clip-rule="evenodd" d="M81 14.5C63.2415 14.5 47.1083 21.5639 35.177 33.0828C34.581 33.6582 33.6314 33.6415 33.056 33.0455C32.4806 32.4495 32.4973 31.4999 33.0933 30.9246C45.557 18.8916 62.4275 11.5 81 11.5C119.404 11.5 150.5 43.0846 150.5 82C150.5 120.915 119.404 152.5 81 152.5C42.5956 152.5 11.5 120.915 11.5 82C11.5 65.4614 17.116 50.2472 26.5211 38.2202C27.0314 37.5677 27.9741 37.4523 28.6267 37.9627C29.2793 38.473 29.3946 39.4157 28.8843 40.0683C19.8796 51.5833 14.5 66.1509 14.5 82C14.5 119.3 44.2936 149.5 81 149.5C117.706 149.5 147.5 119.3 147.5 82C147.5 44.7001 117.706 14.5 81 14.5Z" fill="#333333"/>
<path d="M114.634 105.322L104.645 102.441V99.9084C105.975 98.8407 107.027 97.4426 107.679 95.8387H108.419C111.195 95.8387 113.452 93.5818 113.452 90.8064V82C113.452 75.4418 109.241 69.8635 103.387 67.7841V50.5484C104.775 50.5484 105.903 49.4199 105.903 48.0323V45.5161C105.903 44.1284 104.775 43 103.387 43H45.5161C44.1284 43 43 44.1284 43 45.5161V48.0323C43 49.4199 44.1284 50.5484 45.5161 50.5484V84.5161C45.5161 87.9844 48.3382 90.8064 51.8065 90.8064H83.2581C83.2581 93.5818 85.515 95.8387 88.2903 95.8387H89.0312C89.6829 97.4426 90.7346 98.8407 92.0645 99.9084V102.441L82.0756 105.323C78.3278 106.403 75.7097 109.883 75.7097 113.784V121H121V113.784C121 109.883 118.382 106.403 114.634 105.322ZM106.628 105.632L104.141 111.436L100.238 108.315L103.752 104.801L106.628 105.632ZM108.419 93.3226H108.333C108.384 92.9098 108.419 92.4908 108.419 92.0645V88.2903C109.807 88.2903 110.935 89.4188 110.935 90.8064C110.935 92.1941 109.807 93.3226 108.419 93.3226ZM45.5161 45.5161H103.387L103.388 48.0323H45.5161V45.5161ZM51.8065 88.2903C49.7259 88.2903 48.0323 86.5967 48.0323 84.5161V50.5484H100.871V67.1311C100.051 66.9923 99.2142 66.9032 98.3548 66.9032C95.6034 66.9032 93.0308 67.6557 90.8064 68.9464V53.0645H58.0968V75.7097H84.6482C83.7649 77.6269 83.2581 79.7529 83.2581 82V88.2903H51.8065ZM86.1176 73.1935H60.6129V55.5806H88.2903V70.7794C87.4825 71.5055 86.754 72.3114 86.1176 73.1935ZM88.2903 93.3226C86.9026 93.3226 85.7742 92.1941 85.7742 90.8064C85.7742 89.4188 86.9026 88.2903 88.2903 88.2903V92.0645C88.2903 92.4908 88.3253 92.9098 88.3769 93.3226H88.2903ZM88.619 85.7742H88.2903C87.3695 85.7742 86.5175 86.0408 85.7742 86.4739V82C85.7742 75.0628 91.4177 69.4194 98.3548 69.4194C105.292 69.4194 110.935 75.0628 110.935 82V86.4739C110.192 86.0408 109.34 85.7742 108.419 85.7742H108.091C107.334 83.5849 105.274 82 102.831 82C102.229 82 101.635 82.0971 101.063 82.2869L98.3548 83.1899L95.6452 82.2869C95.0751 82.0971 94.4799 82 93.8773 82C91.4343 82 89.3758 83.5849 88.619 85.7742ZM90.8064 92.0645V87.587C90.8064 85.894 92.1843 84.5161 93.8773 84.5161C94.2084 84.5161 94.534 84.569 94.8485 84.6734L98.3548 85.8424L101.861 84.6734C102.174 84.569 102.5 84.5161 102.832 84.5161C104.525 84.5161 105.903 85.894 105.903 87.587V92.0645C105.903 96.2276 102.518 99.6129 98.3548 99.6129C94.1918 99.6129 90.8064 96.2276 90.8064 92.0645ZM98.3548 102.129C99.6897 102.129 100.963 101.862 102.129 101.388V102.866L98.3548 106.64L94.5806 102.866V101.388C95.7466 101.862 97.02 102.129 98.3548 102.129ZM92.9577 104.801L96.4714 108.315L92.5688 111.436L90.0816 105.632L92.9577 104.801ZM118.484 118.484H113.452V110.935H110.935V118.484H85.7742V110.935H83.2581V118.484H78.2258V113.784C78.2258 110.997 80.0951 108.513 82.7722 107.74L87.6447 106.334L91.559 115.467L98.3548 110.031L105.149 115.467L109.064 106.334L113.936 107.74C116.615 108.513 118.484 110.997 118.484 113.784V118.484Z" fill="white"/>
<path d="M97.0968 113.452H99.6129V115.968H97.0968V113.452Z" fill="white"/>
<path d="M68.1613 71.4551L82.2967 64.3871L68.1613 57.3191V71.4551ZM70.6774 61.3906L76.671 64.3871L70.6774 67.3836V61.3906Z" fill="white"/>
<path d="M63.129 78.2258H60.6129V80.742H53.0645V83.2581H60.6129V85.7742H63.129V83.2581H80.7419V80.742H63.129V78.2258Z" fill="white"/>
</svg>
