<svg width="162" height="164" viewBox="0 0 162 164" fill="none" xmlns="http://www.w3.org/2000/svg">
<ellipse cx="81" cy="82.0159" rx="64" ry="65.0159" fill="#FF8E26"/>
<path fill-rule="evenodd" clip-rule="evenodd" d="M81 162.5C102.236 162.5 121.527 154.07 135.788 140.331C135.987 140.14 136.304 140.146 136.495 140.344C136.687 140.543 136.681 140.86 136.482 141.051C122.043 154.961 102.507 163.5 81 163.5C36.5352 163.5 0.5 127.005 0.5 82C0.5 36.9947 36.5352 0.5 81 0.5C125.465 0.5 161.5 36.9947 161.5 82C161.5 101.125 154.992 118.714 144.096 132.617C143.926 132.835 143.612 132.873 143.394 132.702C143.177 132.532 143.139 132.218 143.309 132C154.072 118.268 160.5 100.895 160.5 82C160.5 37.5352 124.901 1.5 81 1.5C37.0992 1.5 1.5 37.5352 1.5 82C1.5 126.465 37.0992 162.5 81 162.5Z" fill="#FF8E26"/>
<path fill-rule="evenodd" clip-rule="evenodd" d="M81 14.5C63.2415 14.5 47.1083 21.5639 35.177 33.0828C34.581 33.6582 33.6314 33.6415 33.056 33.0455C32.4806 32.4495 32.4973 31.4999 33.0933 30.9246C45.557 18.8916 62.4275 11.5 81 11.5C119.404 11.5 150.5 43.0846 150.5 82C150.5 120.915 119.404 152.5 81 152.5C42.5956 152.5 11.5 120.915 11.5 82C11.5 65.4614 17.116 50.2472 26.5211 38.2202C27.0314 37.5677 27.9741 37.4523 28.6267 37.9627C29.2793 38.473 29.3946 39.4157 28.8843 40.0683C19.8796 51.5833 14.5 66.1509 14.5 82C14.5 119.3 44.2936 149.5 81 149.5C117.706 149.5 147.5 119.3 147.5 82C147.5 44.7001 117.706 14.5 81 14.5Z" fill="#FF8E26"/>
<path d="M114.004 71.1889C115.22 69.8492 115.968 68.0763 115.968 66.129V63.6129C115.968 59.4499 112.582 56.0645 108.419 56.0645C104.256 56.0645 100.871 59.4499 100.871 63.6129V66.129C100.871 68.064 101.608 69.824 102.808 71.1613H84.5161C83.822 71.1613 83.2581 71.7234 83.2581 72.4194V73.6774H63.129V76.1935H83.2581V77.4516C83.2581 78.1476 83.822 78.7097 84.5161 78.7097H100.871V101.355H50.5484V53.5484H113.452V56.0645H115.968V53.3168C117.429 52.7959 118.484 51.4119 118.484 49.7742C118.484 47.6936 116.79 46 114.71 46H49.2903C47.2097 46 45.5161 47.6936 45.5161 49.7742C45.5161 51.4119 46.5715 52.7959 48.0323 53.3168V101.355H44.2581C43.5639 101.355 43 101.917 43 102.613V107.645C43 108.341 43.5639 108.903 44.2581 108.903H80.7419V115.194C80.7419 115.89 81.3059 116.452 82 116.452C83.3877 116.452 84.5161 117.58 84.5161 118.968C84.5161 120.355 83.3877 121.484 82 121.484C80.6123 121.484 79.4839 120.355 79.4839 118.968H76.9677C76.9677 121.743 79.2246 124 82 124C84.7754 124 87.0323 121.743 87.0323 118.968C87.0323 116.628 85.4259 114.654 83.2581 114.095V108.903H100.871V122.742C100.871 123.438 101.435 124 102.129 124H114.71C115.404 124 115.968 123.438 115.968 122.742V96.3226H119.742C120.436 96.3226 121 95.7605 121 95.0645V78.7097C121 74.734 117.909 71.4746 114.004 71.1889ZM103.387 66.129V63.6129C103.387 60.8375 105.644 58.5806 108.419 58.5806C111.195 58.5806 113.452 60.8375 113.452 63.6129V66.129C113.452 68.9044 111.195 71.1613 108.419 71.1613C105.644 71.1613 103.387 68.9044 103.387 66.129ZM49.2903 48.5161H114.71C115.403 48.5161 115.968 49.08 115.968 49.7742C115.968 50.4683 115.403 51.0323 114.71 51.0323H49.2903C48.5974 51.0323 48.0323 50.4683 48.0323 49.7742C48.0323 49.08 48.5974 48.5161 49.2903 48.5161ZM45.5161 106.387V103.871H100.871V106.387H45.5161ZM118.484 93.8064H115.968V81.2258H113.452V121.484H109.677V93.8064H107.161V121.484H103.387V77.4516C103.387 76.7556 102.823 76.1935 102.129 76.1935H85.7742V73.6774H113.452C116.227 73.6774 118.484 75.9343 118.484 78.7097V93.8064Z" fill="white"/>
<path d="M53.0645 66.1292H55.5806V71.1614H53.0645V66.1292Z" fill="white"/>
<path d="M53.0645 61.0967H55.5806V63.6128H53.0645V61.0967Z" fill="white"/>
<path d="M58.0968 63.6128H60.6129V71.1612H58.0968V63.6128Z" fill="white"/>
<path d="M58.0968 58.5806H60.6129V61.0967H58.0968V58.5806Z" fill="white"/>
<path d="M63.129 61.0967H65.6452V71.1612H63.129V61.0967Z" fill="white"/>
<path d="M63.129 56.0645H65.6452V58.5806H63.129V56.0645Z" fill="white"/>
<path d="M68.1613 61.0967H70.6774V71.1612H68.1613V61.0967Z" fill="white"/>
<path d="M68.1613 56.0645H70.6774V58.5806H68.1613V56.0645Z" fill="white"/>
<path d="M70.6774 88.7742C70.6774 84.6112 67.2921 81.2258 63.129 81.2258V83.742C65.9044 83.742 68.1613 85.9989 68.1613 88.7742H70.6774Z" fill="white"/>
<path d="M60.6129 98.8387C64.7759 98.8387 68.1613 95.4534 68.1613 91.2903C68.1613 90.5943 67.5974 90.0323 66.9032 90.0323H61.871V85C61.871 84.304 61.307 83.7419 60.6129 83.7419C56.4499 83.7419 53.0645 87.1273 53.0645 91.2903C53.0645 95.4534 56.4499 98.8387 60.6129 98.8387ZM59.3548 86.4178V91.2903C59.3548 91.9863 59.9188 92.5484 60.6129 92.5484H65.4867C64.9271 94.7175 62.954 96.3226 60.6129 96.3226C57.8375 96.3226 55.5806 94.0657 55.5806 91.2903C55.5806 88.9505 57.187 86.9762 59.3548 86.4178Z" fill="white"/>
<path d="M73.1935 96.3225H90.8064V98.8386H73.1935V96.3225Z" fill="white"/>
<path d="M73.1935 91.2903H90.8064V93.8064H73.1935V91.2903Z" fill="white"/>
<path d="M73.1935 86.2581H90.8064V88.7742H73.1935V86.2581Z" fill="white"/>
</svg>
