<svg width="162" height="164" viewBox="0 0 162 164" fill="none" xmlns="http://www.w3.org/2000/svg">
<ellipse cx="81" cy="82.0159" rx="64" ry="65.0159" fill="#333333"/>
<path fill-rule="evenodd" clip-rule="evenodd" d="M81 162.5C102.236 162.5 121.527 154.07 135.788 140.331C135.987 140.14 136.304 140.146 136.495 140.344C136.687 140.543 136.681 140.86 136.482 141.051C122.043 154.961 102.507 163.5 81 163.5C36.5352 163.5 0.5 127.005 0.5 82C0.5 36.9947 36.5352 0.5 81 0.5C125.465 0.5 161.5 36.9947 161.5 82C161.5 101.125 154.992 118.714 144.096 132.617C143.926 132.835 143.612 132.873 143.394 132.702C143.177 132.532 143.139 132.218 143.309 132C154.072 118.268 160.5 100.895 160.5 82C160.5 37.5352 124.901 1.5 81 1.5C37.0992 1.5 1.5 37.5352 1.5 82C1.5 126.465 37.0992 162.5 81 162.5Z" fill="#333333"/>
<path fill-rule="evenodd" clip-rule="evenodd" d="M81 14.5C63.2415 14.5 47.1083 21.5639 35.177 33.0828C34.581 33.6582 33.6314 33.6415 33.056 33.0455C32.4806 32.4495 32.4973 31.4999 33.0933 30.9246C45.557 18.8916 62.4275 11.5 81 11.5C119.404 11.5 150.5 43.0846 150.5 82C150.5 120.915 119.404 152.5 81 152.5C42.5956 152.5 11.5 120.915 11.5 82C11.5 65.4614 17.116 50.2472 26.5211 38.2202C27.0314 37.5677 27.9741 37.4523 28.6267 37.9627C29.2793 38.473 29.3946 39.4157 28.8843 40.0683C19.8796 51.5833 14.5 66.1509 14.5 82C14.5 119.3 44.2936 149.5 81 149.5C117.706 149.5 147.5 119.3 147.5 82C147.5 44.7001 117.706 14.5 81 14.5Z" fill="#333333"/>
<g clip-path="url(#clip0)">
<path d="M112.794 105.328C113.592 104.183 114.062 102.793 114.062 101.294V99.9067C114.062 96.0063 110.888 92.833 106.988 92.833C103.087 92.833 99.9142 96.0063 99.9142 99.9067V101.294C99.9142 102.793 100.384 104.183 101.182 105.328C98.4182 105.411 95.984 106.824 94.4988 108.949C93.0136 106.824 90.5795 105.411 87.8154 105.328C88.6137 104.183 89.0834 102.793 89.0834 101.294V99.9067C89.0834 96.0063 85.9101 92.833 82.0097 92.833C78.1093 92.833 74.936 96.0063 74.936 99.9067V101.294C74.936 102.793 75.4057 104.183 76.2039 105.328C73.4339 105.411 70.9952 106.83 69.511 108.963C68.0268 106.83 65.5879 105.411 62.8181 105.328C63.6163 104.183 64.086 102.793 64.086 101.294V99.9067C64.086 96.0063 60.9127 92.833 57.0123 92.833C53.1119 92.833 49.9386 96.0063 49.9386 99.9067V101.294C49.9386 102.793 50.4083 104.183 51.2065 105.328C46.6585 105.464 43 109.203 43 113.783V119.467C43 120.308 43.682 120.99 44.5231 120.99H119.477C120.318 120.99 121 120.308 121 119.467V113.783C121 109.203 117.341 105.464 112.794 105.328ZM102.96 99.9067C102.96 97.6859 104.767 95.8791 106.988 95.8791C109.209 95.8791 111.015 97.6859 111.015 99.9067V101.294C111.015 103.515 109.209 105.322 106.988 105.322C104.767 105.322 102.96 103.515 102.96 101.294V99.9067ZM77.9821 99.9067C77.9821 97.6859 79.7889 95.8791 82.0097 95.8791C84.2304 95.8791 86.0373 97.6859 86.0373 99.9067V101.294C86.0373 103.515 84.2304 105.322 82.0097 105.322C79.7889 105.322 77.9821 103.515 77.9821 101.294V99.9067ZM52.9846 99.9067C52.9846 97.6859 54.7914 95.8791 57.0121 95.8791C59.2329 95.8791 61.0397 97.6859 61.0397 99.9067V101.294C61.0397 103.515 59.2329 105.322 57.0121 105.322C54.7914 105.322 52.9846 103.515 52.9846 101.294V99.9067ZM67.9782 117.944H46.0461V113.783C46.0461 110.798 48.4754 108.368 51.4615 108.368H62.5629C65.5489 108.368 67.9783 110.797 67.9783 113.783V117.944H67.9782ZM71.0436 113.783C71.0436 110.798 73.4729 108.368 76.459 108.368H87.5605C90.5464 108.368 92.9758 110.797 92.9758 113.783V117.944H71.0438V113.783H71.0436ZM117.954 117.944H96.0218V113.783C96.0218 110.798 98.4511 108.368 101.437 108.368H112.539C115.525 108.368 117.954 110.797 117.954 113.783V117.944H117.954Z" fill="white"/>
<path d="M71.4812 83.9465C71.0806 83.9465 70.6877 84.1093 70.4044 84.3928C70.1211 84.6759 69.9581 85.0675 69.9581 85.4696C69.9581 85.8702 70.1209 86.2631 70.4044 86.5463C70.6877 86.8295 71.0806 86.9927 71.4812 86.9927C71.8818 86.9927 72.2747 86.8297 72.5578 86.5463C72.8411 86.2614 73.0042 85.8702 73.0042 85.4696C73.0042 85.0689 72.8413 84.6759 72.5578 84.3928C72.2747 84.1093 71.8818 83.9465 71.4812 83.9465Z" fill="white"/>
<path d="M52.7475 86.9921H65.3889C66.23 86.9921 66.912 86.3101 66.912 85.4691C66.912 84.628 66.23 83.946 65.3889 83.946H54.2706V73.1612C54.2706 70.3299 56.5741 68.0265 59.4053 68.0265H61.9237V75.1467C61.9237 75.7573 62.2883 76.3086 62.8498 76.5479C63.4116 76.787 64.0617 76.6679 64.5021 76.245L69.9581 71.0026V75.5879C69.9581 76.429 70.6401 77.111 71.4812 77.111C72.3222 77.111 73.0042 76.429 73.0042 75.5879V71.0026L78.4603 76.245C78.7497 76.5229 79.1298 76.6698 79.5159 76.6698C79.7171 76.6698 79.92 76.6298 80.1125 76.5479C80.6742 76.3086 81.0387 75.7573 81.0387 75.1467V68.0265H83.5571C86.3883 68.0265 88.6918 70.3299 88.6918 73.1612V83.946H77.5734C76.7324 83.946 76.0504 84.628 76.0504 85.4691C76.0504 86.3101 76.7324 86.9921 77.5734 86.9921H90.2148C91.0558 86.9921 91.7379 86.3101 91.7379 85.4691V73.1612C91.7379 68.6504 88.0679 64.9804 83.5571 64.9804H78.5575C80.2222 63.2283 81.247 60.8625 81.247 58.2607V54.7598V53.1398V52.7754C81.247 47.3906 76.8661 43.0095 71.4812 43.0095C66.0963 43.0095 61.7153 47.3906 61.7153 52.7754V53.1398V54.7598V58.2607C61.7153 60.8625 62.7402 63.2283 64.4049 64.9804H59.4053C54.8945 64.9804 51.2245 68.6504 51.2245 73.1612V85.4691C51.2245 86.3101 51.9065 86.9921 52.7475 86.9921ZM64.9698 68.0265H68.6588L64.9698 71.571V68.0265ZM77.9926 71.5712L74.3036 68.0267H77.9926V71.5712ZM64.7614 52.7755C64.7614 49.0702 67.7759 46.0558 71.4812 46.0558C74.9507 46.0558 77.8147 48.6989 78.165 52.0774L74.9815 50.207C74.3401 49.8302 73.5204 49.9719 73.0426 50.542C71.6076 52.2545 69.503 53.2367 67.2687 53.2367H64.7614V53.1398V52.7755ZM64.7614 58.2607V56.2828H67.2686C69.9683 56.2828 72.5327 55.2621 74.4799 53.4452L78.2011 55.6314V58.2607C78.2011 61.966 75.1866 64.9804 71.4813 64.9804C67.776 64.9804 64.7614 61.966 64.7614 58.2607Z" fill="white"/>
<path d="M92.1671 67.7892C92.4152 67.9467 92.6988 68.0267 92.9838 68.0267C93.204 68.0267 93.4251 67.9789 93.6311 67.8823L98.7936 65.4579H117.712C119.514 65.4579 120.981 63.9918 120.981 62.1896V46.2779C120.981 44.4756 119.514 43.0095 117.712 43.0095H94.729C92.9269 43.0095 91.4607 44.4756 91.4607 46.2779V66.5035C91.4607 67.0247 91.7272 67.5098 92.1671 67.7892ZM94.5068 46.2779C94.5068 46.1552 94.6064 46.0556 94.729 46.0556H117.712C117.835 46.0556 117.935 46.1552 117.935 46.2779V62.1894C117.935 62.312 117.835 62.4116 117.712 62.4116H98.4538C98.2299 62.4116 98.0089 62.461 97.8064 62.556L94.5068 64.1056V46.2779Z" fill="white"/>
<path d="M98.9624 52.5403H113.479C114.32 52.5403 115.002 51.8582 115.002 51.0172C115.002 50.1762 114.32 49.4941 113.479 49.4941H98.9624C98.1214 49.4941 97.4393 50.1762 97.4393 51.0172C97.4393 51.8582 98.1212 52.5403 98.9624 52.5403Z" fill="white"/>
<path d="M98.9624 58.6325H108.977C109.818 58.6325 110.5 57.9505 110.5 57.1095C110.5 56.2685 109.818 55.5864 108.977 55.5864H98.9624C98.1214 55.5864 97.4393 56.2685 97.4393 57.1095C97.4393 57.9505 98.1212 58.6325 98.9624 58.6325Z" fill="white"/>
</g>
<defs>
<clipPath id="clip0">
<rect width="78" height="78" fill="white" transform="translate(43 43)"/>
</clipPath>
</defs>
</svg>
