<svg width="162" height="164" viewBox="0 0 162 164" fill="none" xmlns="http://www.w3.org/2000/svg">
<ellipse cx="81" cy="82.0159" rx="64" ry="65.0159" fill="#FF8E26"/>
<path fill-rule="evenodd" clip-rule="evenodd" d="M81 162.5C102.236 162.5 121.527 154.07 135.788 140.331C135.987 140.14 136.304 140.146 136.495 140.344C136.687 140.543 136.681 140.86 136.482 141.051C122.043 154.961 102.507 163.5 81 163.5C36.5352 163.5 0.5 127.005 0.5 82C0.5 36.9947 36.5352 0.5 81 0.5C125.465 0.5 161.5 36.9947 161.5 82C161.5 101.125 154.992 118.714 144.096 132.617C143.926 132.835 143.612 132.873 143.394 132.702C143.177 132.532 143.139 132.218 143.309 132C154.072 118.268 160.5 100.895 160.5 82C160.5 37.5352 124.901 1.5 81 1.5C37.0992 1.5 1.5 37.5352 1.5 82C1.5 126.465 37.0992 162.5 81 162.5Z" fill="#FF8E26"/>
<path fill-rule="evenodd" clip-rule="evenodd" d="M81 14.5C63.2415 14.5 47.1083 21.5639 35.177 33.0828C34.581 33.6582 33.6314 33.6415 33.056 33.0455C32.4806 32.4495 32.4973 31.4999 33.0933 30.9246C45.557 18.8916 62.4275 11.5 81 11.5C119.404 11.5 150.5 43.0846 150.5 82C150.5 120.915 119.404 152.5 81 152.5C42.5956 152.5 11.5 120.915 11.5 82C11.5 65.4614 17.116 50.2472 26.5211 38.2202C27.0314 37.5677 27.9741 37.4523 28.6267 37.9627C29.2793 38.473 29.3946 39.4157 28.8843 40.0683C19.8796 51.5833 14.5 66.1509 14.5 82C14.5 119.3 44.2936 149.5 81 149.5C117.706 149.5 147.5 119.3 147.5 82C147.5 44.7001 117.706 14.5 81 14.5Z" fill="#FF8E26"/>
<path d="M54.1438 114.725H54.1367L54.1296 114.725C51.8952 114.751 50.5107 114.756 49.3355 114.42C48.2554 114.111 47.2685 113.482 46.0121 111.978C45.0086 110.772 44.5874 109.855 44.3979 108.92C44.1959 107.922 44.2362 106.83 44.3123 105.146C44.3391 104.721 44.3638 104.198 44.3638 102.766V67.7753L46.9899 65.8147L46.9917 65.8134L78.3408 42.4959L78.3435 42.4939L82.2625 39.5629L86.1835 42.516L86.1846 42.5168L119.471 67.5269V93.2041L106.42 83.3984V74.5279V73.9035L105.92 73.5285L82.9662 56.2853L82.2188 55.7239L81.469 56.2821L57.9435 73.7958L57.4399 74.1707V74.7985V100.739V101.989H58.6899H119.75V114.75H55.5101C55.1122 114.75 54.8039 114.75 54.5678 114.749C54.5381 114.743 54.5159 114.74 54.5053 114.739C54.4622 114.733 54.4281 114.73 54.4186 114.73C54.4038 114.729 54.3918 114.728 54.3847 114.728C54.3337 114.725 54.2401 114.725 54.1438 114.725Z" stroke="white" stroke-width="2.5"/>
</svg>
