<svg width="49" height="60" fill="none" xmlns="http://www.w3.org/2000/svg"><path d="M23.2116.0153C11.2239.4335 1.2651 9.7339.1146 21.6053c-.235 2.3743-.099 4.6748.3216 6.8769 0 0 .0371.2583.1608.7504.3712 1.6485.9279 3.2477 1.6207 4.7486 2.4123 5.6835 7.9918 15.193 20.5114 25.539.767.6397 1.8928.6397 2.6722 0 12.5196-10.3337 18.099-19.8432 20.5238-25.5513.7051-1.5009 1.2495-3.0878 1.6206-4.7486.1114-.4798.1608-.7504.1608-.7504a23.9283 23.9283 0 0 0 .433-4.5395c0-13.5076-11.2454-24.395-24.9279-23.9151zm.8536 35.8235c-6.4578 0-11.6908-5.2038-11.6908-11.6254 0-6.4217 5.233-11.6254 11.6908-11.6254S35.756 17.7917 35.756 24.2134c0 6.4216-5.233 11.6254-11.6908 11.6254z" fill="#FF7D05"/></svg>