<svg width="448" height="69" viewBox="0 0 448 69" fill="none" xmlns="http://www.w3.org/2000/svg">
<path d="M89.7559 11.6523H83.916V16.0273H90.7422V18H81.4453V3.78125H90.6738V5.77344H83.916V9.69922H89.7559V11.6523ZM92.5684 16.1055C93.2259 15.3698 93.6654 14.6732 93.8867 14.0156C94.1146 13.3516 94.2513 12.5052 94.2969 11.4766L94.4336 7.43359H101.768V16.1055H103.232V21.1445H100.869V18H94.0918V21.1445H91.6895L91.6992 16.1055H92.5684ZM95.3516 16.1055H99.4043V9.47461H96.7383L96.6699 11.4961C96.5788 13.4362 96.1393 14.9727 95.3516 16.1055ZM111.348 7.43359H113.711V18H111.348V10.9492L107.207 18H104.844V7.43359H107.207V14.4844L111.348 7.43359ZM125.186 18H122.812V13.7324H118.701V18H116.328V7.43359H118.701V11.8379H122.812V7.43359H125.186V18ZM130.273 10.793H132.598C133.464 10.793 134.219 10.9427 134.863 11.2422C135.508 11.5417 135.996 11.9616 136.328 12.502C136.667 13.0423 136.836 13.6706 136.836 14.3867C136.836 15.474 136.452 16.3464 135.684 17.0039C134.915 17.6615 133.893 17.9935 132.617 18H127.9V7.43359H130.273V10.793ZM140.967 18H138.594V7.43359H140.967V18ZM130.273 12.6973V16.1055H132.588C133.167 16.1055 133.623 15.9622 133.955 15.6758C134.294 15.3828 134.463 14.9694 134.463 14.4355C134.463 13.9017 134.297 13.4818 133.965 13.1758C133.639 12.8633 133.197 12.7038 132.637 12.6973H130.273ZM150.41 7.43359H152.773V18H150.41V10.9492L146.27 18H143.906V7.43359H146.27V14.4844L150.41 7.43359ZM151.523 3.38086C151.523 4.20117 151.237 4.86523 150.664 5.37305C150.091 5.88086 149.326 6.13477 148.369 6.13477C147.412 6.13477 146.647 5.88086 146.074 5.37305C145.501 4.86523 145.215 4.20117 145.215 3.38086H146.992C146.992 3.81055 147.113 4.14583 147.354 4.38672C147.601 4.62109 147.939 4.73828 148.369 4.73828C148.799 4.73828 149.134 4.62109 149.375 4.38672C149.616 4.14583 149.736 3.81055 149.736 3.38086H151.523ZM169.531 12.8242C169.531 14.4583 169.16 15.7637 168.418 16.7402C167.676 17.7103 166.68 18.1953 165.43 18.1953C164.271 18.1953 163.343 17.8145 162.646 17.0527V22.0625H160.273V7.43359H162.461L162.559 8.50781C163.255 7.66146 164.202 7.23828 165.4 7.23828C166.689 7.23828 167.699 7.72005 168.428 8.68359C169.163 9.64062 169.531 10.972 169.531 12.6777V12.8242ZM167.168 12.6191C167.168 11.5645 166.956 10.7279 166.533 10.1094C166.117 9.49089 165.518 9.18164 164.736 9.18164C163.766 9.18164 163.07 9.58203 162.646 10.3828V15.0703C163.076 15.8906 163.779 16.3008 164.756 16.3008C165.511 16.3008 166.1 15.998 166.523 15.3926C166.953 14.7806 167.168 13.8561 167.168 12.6191ZM176.201 18.1953C174.697 18.1953 173.477 17.7233 172.539 16.7793C171.608 15.8288 171.143 14.5658 171.143 12.9902V12.6973C171.143 11.6426 171.344 10.7018 171.748 9.875C172.158 9.04167 172.731 8.39388 173.467 7.93164C174.202 7.4694 175.023 7.23828 175.928 7.23828C177.367 7.23828 178.477 7.69727 179.258 8.61523C180.046 9.5332 180.439 10.832 180.439 12.5117V13.4688H173.535C173.607 14.3411 173.896 15.0312 174.404 15.5391C174.919 16.0469 175.563 16.3008 176.338 16.3008C177.425 16.3008 178.311 15.8613 178.994 14.9824L180.273 16.2031C179.85 16.8346 179.284 17.3262 178.574 17.6777C177.871 18.0228 177.08 18.1953 176.201 18.1953ZM175.918 9.14258C175.267 9.14258 174.74 9.37044 174.336 9.82617C173.939 10.2819 173.685 10.9167 173.574 11.7305H178.096V11.5547C178.044 10.7604 177.832 10.1615 177.461 9.75781C177.09 9.34766 176.576 9.14258 175.918 9.14258ZM186.943 18.1953C185.439 18.1953 184.219 17.7233 183.281 16.7793C182.35 15.8288 181.885 14.5658 181.885 12.9902V12.6973C181.885 11.6426 182.087 10.7018 182.49 9.875C182.9 9.04167 183.473 8.39388 184.209 7.93164C184.945 7.4694 185.765 7.23828 186.67 7.23828C188.109 7.23828 189.219 7.69727 190 8.61523C190.788 9.5332 191.182 10.832 191.182 12.5117V13.4688H184.277C184.349 14.3411 184.639 15.0312 185.146 15.5391C185.661 16.0469 186.305 16.3008 187.08 16.3008C188.167 16.3008 189.053 15.8613 189.736 14.9824L191.016 16.2031C190.592 16.8346 190.026 17.3262 189.316 17.6777C188.613 18.0228 187.822 18.1953 186.943 18.1953ZM186.66 9.14258C186.009 9.14258 185.482 9.37044 185.078 9.82617C184.681 10.2819 184.427 10.9167 184.316 11.7305H188.838V11.5547C188.786 10.7604 188.574 10.1615 188.203 9.75781C187.832 9.34766 187.318 9.14258 186.66 9.14258ZM197.373 16.3008C197.965 16.3008 198.457 16.1283 198.848 15.7832C199.238 15.4382 199.447 15.0117 199.473 14.5039H201.709C201.683 15.1615 201.478 15.7767 201.094 16.3496C200.71 16.916 200.189 17.3652 199.531 17.6973C198.874 18.0293 198.164 18.1953 197.402 18.1953C195.924 18.1953 194.753 17.7168 193.887 16.7598C193.021 15.8027 192.588 14.4811 192.588 12.7949V12.5508C192.588 10.9427 193.018 9.6569 193.877 8.69336C194.736 7.72331 195.908 7.23828 197.393 7.23828C198.649 7.23828 199.671 7.60612 200.459 8.3418C201.253 9.07096 201.67 10.0312 201.709 11.2227H199.473C199.447 10.6172 199.238 10.1191 198.848 9.72852C198.464 9.33789 197.972 9.14258 197.373 9.14258C196.605 9.14258 196.012 9.42253 195.596 9.98242C195.179 10.5358 194.967 11.3789 194.961 12.5117V12.8926C194.961 14.0384 195.166 14.8945 195.576 15.4609C195.993 16.0208 196.592 16.3008 197.373 16.3008ZM211.816 9.31836H208.389V18H206.016V9.31836H202.627V7.43359H211.816V9.31836ZM222.656 12.8242C222.656 14.4583 222.285 15.7637 221.543 16.7402C220.801 17.7103 219.805 18.1953 218.555 18.1953C217.396 18.1953 216.468 17.8145 215.771 17.0527V22.0625H213.398V7.43359H215.586L215.684 8.50781C216.38 7.66146 217.327 7.23828 218.525 7.23828C219.814 7.23828 220.824 7.72005 221.553 8.68359C222.288 9.64062 222.656 10.972 222.656 12.6777V12.8242ZM220.293 12.6191C220.293 11.5645 220.081 10.7279 219.658 10.1094C219.242 9.49089 218.643 9.18164 217.861 9.18164C216.891 9.18164 216.195 9.58203 215.771 10.3828V15.0703C216.201 15.8906 216.904 16.3008 217.881 16.3008C218.636 16.3008 219.225 15.998 219.648 15.3926C220.078 14.7806 220.293 13.8561 220.293 12.6191ZM233.994 16.3008C234.587 16.3008 235.078 16.1283 235.469 15.7832C235.859 15.4382 236.068 15.0117 236.094 14.5039H238.33C238.304 15.1615 238.099 15.7767 237.715 16.3496C237.331 16.916 236.81 17.3652 236.152 17.6973C235.495 18.0293 234.785 18.1953 234.023 18.1953C232.546 18.1953 231.374 17.7168 230.508 16.7598C229.642 15.8027 229.209 14.4811 229.209 12.7949V12.5508C229.209 10.9427 229.639 9.6569 230.498 8.69336C231.357 7.72331 232.529 7.23828 234.014 7.23828C235.27 7.23828 236.292 7.60612 237.08 8.3418C237.874 9.07096 238.291 10.0312 238.33 11.2227H236.094C236.068 10.6172 235.859 10.1191 235.469 9.72852C235.085 9.33789 234.593 9.14258 233.994 9.14258C233.226 9.14258 232.633 9.42253 232.217 9.98242C231.8 10.5358 231.589 11.3789 231.582 12.5117V12.8926C231.582 14.0384 231.787 14.8945 232.197 15.4609C232.614 16.0208 233.213 16.3008 233.994 16.3008ZM244.775 18.1953C243.271 18.1953 242.051 17.7233 241.113 16.7793C240.182 15.8288 239.717 14.5658 239.717 12.9902V12.6973C239.717 11.6426 239.919 10.7018 240.322 9.875C240.732 9.04167 241.305 8.39388 242.041 7.93164C242.777 7.4694 243.597 7.23828 244.502 7.23828C245.941 7.23828 247.051 7.69727 247.832 8.61523C248.62 9.5332 249.014 10.832 249.014 12.5117V13.4688H242.109C242.181 14.3411 242.471 15.0312 242.979 15.5391C243.493 16.0469 244.137 16.3008 244.912 16.3008C245.999 16.3008 246.885 15.8613 247.568 14.9824L248.848 16.2031C248.424 16.8346 247.858 17.3262 247.148 17.6777C246.445 18.0228 245.654 18.1953 244.775 18.1953ZM244.492 9.14258C243.841 9.14258 243.314 9.37044 242.91 9.82617C242.513 10.2819 242.259 10.9167 242.148 11.7305H246.67V11.5547C246.618 10.7604 246.406 10.1615 246.035 9.75781C245.664 9.34766 245.15 9.14258 244.492 9.14258ZM260.117 12.8242C260.117 14.4583 259.746 15.7637 259.004 16.7402C258.262 17.7103 257.266 18.1953 256.016 18.1953C254.857 18.1953 253.929 17.8145 253.232 17.0527V22.0625H250.859V7.43359H253.047L253.145 8.50781C253.841 7.66146 254.788 7.23828 255.986 7.23828C257.275 7.23828 258.285 7.72005 259.014 8.68359C259.749 9.64062 260.117 10.972 260.117 12.6777V12.8242ZM257.754 12.6191C257.754 11.5645 257.542 10.7279 257.119 10.1094C256.702 9.49089 256.104 9.18164 255.322 9.18164C254.352 9.18164 253.656 9.58203 253.232 10.3828V15.0703C253.662 15.8906 254.365 16.3008 255.342 16.3008C256.097 16.3008 256.686 15.998 257.109 15.3926C257.539 14.7806 257.754 13.8561 257.754 12.6191ZM270.039 9.31836H266.611V18H264.238V9.31836H260.85V7.43359H270.039V9.31836ZM278.223 7.43359H280.586V18H278.223V10.9492L274.082 18H271.719V7.43359H274.082V14.4844L278.223 7.43359ZM282.715 12.8633C282.715 11.138 283.053 9.77083 283.73 8.76172C284.414 7.74609 285.365 7.23828 286.582 7.23828C287.077 7.23828 287.526 7.32943 287.93 7.51172V3H290.293V7.55078C290.71 7.34245 291.198 7.23828 291.758 7.23828C292.969 7.23828 293.916 7.74284 294.6 8.75195C295.29 9.75456 295.635 11.1934 295.635 13.0684C295.635 14.6504 295.29 15.9004 294.6 16.8184C293.91 17.7363 292.969 18.1953 291.777 18.1953C291.237 18.1953 290.742 18.0977 290.293 17.9023V22.0625H287.93V17.9414C287.533 18.1107 287.077 18.1953 286.562 18.1953C285.423 18.1953 284.512 17.7754 283.828 16.9355C283.151 16.0892 282.783 14.9271 282.725 13.4492L282.715 12.8633ZM293.262 12.8633C293.262 11.6784 293.073 10.7637 292.695 10.1191C292.318 9.4681 291.784 9.14258 291.094 9.14258C290.801 9.14258 290.534 9.1849 290.293 9.26953V16.2031C290.508 16.2682 290.781 16.3008 291.113 16.3008C292.546 16.3008 293.262 15.1549 293.262 12.8633ZM285.078 13.0684C285.078 14.123 285.254 14.9271 285.605 15.4805C285.957 16.0273 286.478 16.3008 287.168 16.3008C287.461 16.3008 287.715 16.2682 287.93 16.2031V9.24023C287.708 9.17513 287.461 9.14258 287.188 9.14258C286.51 9.14258 285.99 9.45833 285.625 10.0898C285.26 10.7148 285.078 11.7077 285.078 13.0684ZM304.277 7.43359H306.641V18H304.277V10.9492L300.137 18H297.773V7.43359H300.137V14.4844L304.277 7.43359ZM309.258 7.43359H311.631V16.1055H315.752V7.43359H318.125V16.1055H319.561L319.365 21.1348H317.207V18H309.258V7.43359ZM327.832 7.43359H330.195V18H327.832V10.9492L323.691 18H321.328V7.43359H323.691V14.4844L327.832 7.43359ZM341.973 12.8242C341.973 14.4583 341.602 15.7637 340.859 16.7402C340.117 17.7103 339.121 18.1953 337.871 18.1953C336.712 18.1953 335.785 17.8145 335.088 17.0527V22.0625H332.715V7.43359H334.902L335 8.50781C335.697 7.66146 336.644 7.23828 337.842 7.23828C339.131 7.23828 340.14 7.72005 340.869 8.68359C341.605 9.64062 341.973 10.972 341.973 12.6777V12.8242ZM339.609 12.6191C339.609 11.5645 339.398 10.7279 338.975 10.1094C338.558 9.49089 337.959 9.18164 337.178 9.18164C336.208 9.18164 335.511 9.58203 335.088 10.3828V15.0703C335.518 15.8906 336.221 16.3008 337.197 16.3008C337.952 16.3008 338.542 15.998 338.965 15.3926C339.395 14.7806 339.609 13.8561 339.609 12.6191ZM343.545 12.6191C343.545 11.584 343.75 10.653 344.16 9.82617C344.57 8.99284 345.146 8.35482 345.889 7.91211C346.631 7.46289 347.484 7.23828 348.447 7.23828C349.873 7.23828 351.029 7.69727 351.914 8.61523C352.806 9.5332 353.288 10.7507 353.359 12.2676L353.369 12.8242C353.369 13.8659 353.167 14.7969 352.764 15.6172C352.367 16.4375 351.794 17.0723 351.045 17.5215C350.303 17.9707 349.443 18.1953 348.467 18.1953C346.976 18.1953 345.781 17.7005 344.883 16.7109C343.991 15.7148 343.545 14.39 343.545 12.7363V12.6191ZM345.918 12.8242C345.918 13.9115 346.143 14.7643 346.592 15.3828C347.041 15.9948 347.666 16.3008 348.467 16.3008C349.268 16.3008 349.889 15.9883 350.332 15.3633C350.781 14.7383 351.006 13.8236 351.006 12.6191C351.006 11.5514 350.775 10.7051 350.312 10.0801C349.857 9.45508 349.235 9.14258 348.447 9.14258C347.673 9.14258 347.057 9.45182 346.602 10.0703C346.146 10.6823 345.918 11.6003 345.918 12.8242ZM355.557 18V7.43359H359.844C361.289 7.43359 362.389 7.6875 363.145 8.19531C363.9 8.69661 364.277 9.41927 364.277 10.3633C364.277 10.8516 364.124 11.291 363.818 11.6816C363.519 12.0658 363.073 12.362 362.48 12.5703C363.171 12.7135 363.717 13.0033 364.121 13.4395C364.525 13.8757 364.727 14.39 364.727 14.9824C364.727 15.9655 364.362 16.7142 363.633 17.2285C362.91 17.7428 361.868 18 360.508 18H355.557ZM357.93 13.498V16.125H360.527C361.745 16.125 362.354 15.6888 362.354 14.8164C362.354 13.9375 361.735 13.498 360.498 13.498H357.93ZM357.93 11.7988H359.883C361.23 11.7988 361.904 11.4017 361.904 10.6074C361.904 9.77409 361.266 9.3444 359.99 9.31836H357.93V11.7988ZM373.096 18C372.992 17.7982 372.9 17.4694 372.822 17.0137C372.067 17.8014 371.143 18.1953 370.049 18.1953C368.988 18.1953 368.122 17.8926 367.451 17.2871C366.781 16.6816 366.445 15.9329 366.445 15.041C366.445 13.9147 366.862 13.0521 367.695 12.4531C368.535 11.8477 369.733 11.5449 371.289 11.5449H372.744V10.8516C372.744 10.3047 372.591 9.86849 372.285 9.54297C371.979 9.21094 371.514 9.04492 370.889 9.04492C370.348 9.04492 369.906 9.18164 369.561 9.45508C369.215 9.72201 369.043 10.0638 369.043 10.4805H366.67C366.67 9.90104 366.862 9.36068 367.246 8.85938C367.63 8.35156 368.151 7.95443 368.809 7.66797C369.473 7.38151 370.212 7.23828 371.025 7.23828C372.262 7.23828 373.249 7.55078 373.984 8.17578C374.72 8.79427 375.098 9.66667 375.117 10.793V15.5586C375.117 16.5091 375.251 17.2676 375.518 17.834V18H373.096ZM370.488 16.291C370.957 16.291 371.396 16.1771 371.807 15.9492C372.223 15.7214 372.536 15.4154 372.744 15.0312V13.0391H371.465C370.586 13.0391 369.925 13.1921 369.482 13.498C369.04 13.804 368.818 14.237 368.818 14.7969C368.818 15.2526 368.968 15.6172 369.268 15.8906C369.574 16.1576 369.98 16.291 370.488 16.291ZM386.553 18H384.18V13.7324H380.068V18H377.695V7.43359H380.068V11.8379H384.18V7.43359H386.553V18ZM398.037 18H395.664V13.7324H391.553V18H389.18V7.43359H391.553V11.8379H395.664V7.43359H398.037V18ZM403.125 10.793H405.449C406.315 10.793 407.07 10.9427 407.715 11.2422C408.359 11.5417 408.848 11.9616 409.18 12.502C409.518 13.0423 409.688 13.6706 409.688 14.3867C409.688 15.474 409.303 16.3464 408.535 17.0039C407.767 17.6615 406.745 17.9935 405.469 18H400.752V7.43359H403.125V10.793ZM413.818 18H411.445V7.43359H413.818V18ZM403.125 12.6973V16.1055H405.439C406.019 16.1055 406.475 15.9622 406.807 15.6758C407.145 15.3828 407.314 14.9694 407.314 14.4355C407.314 13.9017 407.148 13.4818 406.816 13.1758C406.491 12.8633 406.048 12.7038 405.488 12.6973H403.125ZM420.459 10.9102L422.471 7.43359H425.107L421.875 12.6387L425.215 18H422.598L420.488 14.3867L418.389 18H415.752L419.092 12.6387L415.869 7.43359H418.486L420.459 10.9102ZM84.9707 36.8203H83.7695V41H81.3965V30.4336H83.7695V34.6523H84.8145L87.7344 30.4336H90.6641L86.8457 35.4922L90.9863 41H87.9004L84.9707 36.8203ZM91.2793 35.6191C91.2793 34.584 91.4844 33.653 91.8945 32.8262C92.3047 31.9928 92.8809 31.3548 93.623 30.9121C94.3652 30.4629 95.2181 30.2383 96.1816 30.2383C97.6074 30.2383 98.763 30.6973 99.6484 31.6152C100.54 32.5332 101.022 33.7507 101.094 35.2676L101.104 35.8242C101.104 36.8659 100.902 37.7969 100.498 38.6172C100.101 39.4375 99.528 40.0723 98.7793 40.5215C98.0371 40.9707 97.1777 41.1953 96.2012 41.1953C94.7103 41.1953 93.5156 40.7005 92.6172 39.7109C91.7253 38.7148 91.2793 37.39 91.2793 35.7363V35.6191ZM93.6523 35.8242C93.6523 36.9115 93.877 37.7643 94.3262 38.3828C94.7754 38.9948 95.4004 39.3008 96.2012 39.3008C97.002 39.3008 97.6237 38.9883 98.0664 38.3633C98.5156 37.7383 98.7402 36.8236 98.7402 35.6191C98.7402 34.5514 98.5091 33.7051 98.0469 33.0801C97.5911 32.4551 96.9694 32.1426 96.1816 32.1426C95.4069 32.1426 94.7917 32.4518 94.3359 33.0703C93.8802 33.6823 93.6523 34.6003 93.6523 35.8242ZM109.385 38.0801L112.51 30.4336H115.479V41H113.105V34.0078L110.195 41H108.584L105.664 33.9688V41H103.291V30.4336H106.279L109.385 38.0801ZM127.109 41H124.736V32.3477H120.615V41H118.242V30.4336H127.109V41ZM135.947 41C135.843 40.7982 135.752 40.4694 135.674 40.0137C134.919 40.8014 133.994 41.1953 132.9 41.1953C131.839 41.1953 130.973 40.8926 130.303 40.2871C129.632 39.6816 129.297 38.9329 129.297 38.041C129.297 36.9147 129.714 36.0521 130.547 35.4531C131.387 34.8477 132.585 34.5449 134.141 34.5449H135.596V33.8516C135.596 33.3047 135.443 32.8685 135.137 32.543C134.831 32.2109 134.365 32.0449 133.74 32.0449C133.2 32.0449 132.757 32.1816 132.412 32.4551C132.067 32.722 131.895 33.0638 131.895 33.4805H129.521C129.521 32.901 129.714 32.3607 130.098 31.8594C130.482 31.3516 131.003 30.9544 131.66 30.668C132.324 30.3815 133.063 30.2383 133.877 30.2383C135.114 30.2383 136.1 30.5508 136.836 31.1758C137.572 31.7943 137.949 32.6667 137.969 33.793V38.5586C137.969 39.5091 138.102 40.2676 138.369 40.834V41H135.947ZM133.34 39.291C133.809 39.291 134.248 39.1771 134.658 38.9492C135.075 38.7214 135.387 38.4154 135.596 38.0312V36.0391H134.316C133.438 36.0391 132.777 36.1921 132.334 36.498C131.891 36.804 131.67 37.237 131.67 37.7969C131.67 38.2526 131.82 38.6172 132.119 38.8906C132.425 39.1576 132.832 39.291 133.34 39.291ZM149.404 41H147.031V36.7324H142.92V41H140.547V30.4336H142.92V34.8379H147.031V30.4336H149.404V41ZM158.535 30.4336H160.898V41H158.535V33.9492L154.395 41H152.031V30.4336H154.395V37.4844L158.535 30.4336ZM170.02 30.4336H172.383V41H170.02V33.9492L165.879 41H163.516V30.4336H165.879V37.4844L170.02 30.4336ZM171.133 26.3809C171.133 27.2012 170.846 27.8652 170.273 28.373C169.701 28.8809 168.936 29.1348 167.979 29.1348C167.021 29.1348 166.257 28.8809 165.684 28.373C165.111 27.8652 164.824 27.2012 164.824 26.3809H166.602C166.602 26.8105 166.722 27.1458 166.963 27.3867C167.21 27.6211 167.549 27.7383 167.979 27.7383C168.408 27.7383 168.743 27.6211 168.984 27.3867C169.225 27.1458 169.346 26.8105 169.346 26.3809H171.133ZM186.484 30.4336H188.848V41H186.484V33.9492L182.344 41H179.98V30.4336H182.344V37.4844L186.484 30.4336ZM202.666 41C202.562 40.7982 202.471 40.4694 202.393 40.0137C201.637 40.8014 200.713 41.1953 199.619 41.1953C198.558 41.1953 197.692 40.8926 197.021 40.2871C196.351 39.6816 196.016 38.9329 196.016 38.041C196.016 36.9147 196.432 36.0521 197.266 35.4531C198.105 34.8477 199.303 34.5449 200.859 34.5449H202.314V33.8516C202.314 33.3047 202.161 32.8685 201.855 32.543C201.549 32.2109 201.084 32.0449 200.459 32.0449C199.919 32.0449 199.476 32.1816 199.131 32.4551C198.786 32.722 198.613 33.0638 198.613 33.4805H196.24C196.24 32.901 196.432 32.3607 196.816 31.8594C197.201 31.3516 197.721 30.9544 198.379 30.668C199.043 30.3815 199.782 30.2383 200.596 30.2383C201.833 30.2383 202.819 30.5508 203.555 31.1758C204.29 31.7943 204.668 32.6667 204.688 33.793V38.5586C204.688 39.5091 204.821 40.2676 205.088 40.834V41H202.666ZM200.059 39.291C200.527 39.291 200.967 39.1771 201.377 38.9492C201.794 38.7214 202.106 38.4154 202.314 38.0312V36.0391H201.035C200.156 36.0391 199.495 36.1921 199.053 36.498C198.61 36.804 198.389 37.237 198.389 37.7969C198.389 38.2526 198.538 38.6172 198.838 38.8906C199.144 39.1576 199.551 39.291 200.059 39.291ZM215.332 32.3184H211.904V41H209.531V32.3184H206.143V30.4336H215.332V32.3184ZM225.234 32.3184H221.807V41H219.434V32.3184H216.045V30.4336H225.234V32.3184ZM230.85 41.1953C229.346 41.1953 228.125 40.7233 227.188 39.7793C226.257 38.8288 225.791 37.5658 225.791 35.9902V35.6973C225.791 34.6426 225.993 33.7018 226.396 32.875C226.807 32.0417 227.38 31.3939 228.115 30.9316C228.851 30.4694 229.671 30.2383 230.576 30.2383C232.015 30.2383 233.125 30.6973 233.906 31.6152C234.694 32.5332 235.088 33.832 235.088 35.5117V36.4688H228.184C228.255 37.3411 228.545 38.0312 229.053 38.5391C229.567 39.0469 230.212 39.3008 230.986 39.3008C232.074 39.3008 232.959 38.8613 233.643 37.9824L234.922 39.2031C234.499 39.8346 233.932 40.3262 233.223 40.6777C232.52 41.0228 231.729 41.1953 230.85 41.1953ZM230.566 32.1426C229.915 32.1426 229.388 32.3704 228.984 32.8262C228.587 33.2819 228.333 33.9167 228.223 34.7305H232.744V34.5547C232.692 33.7604 232.48 33.1615 232.109 32.7578C231.738 32.3477 231.224 32.1426 230.566 32.1426ZM241.279 39.3008C241.872 39.3008 242.363 39.1283 242.754 38.7832C243.145 38.4382 243.353 38.0117 243.379 37.5039H245.615C245.589 38.1615 245.384 38.7767 245 39.3496C244.616 39.916 244.095 40.3652 243.438 40.6973C242.78 41.0293 242.07 41.1953 241.309 41.1953C239.831 41.1953 238.659 40.7168 237.793 39.7598C236.927 38.8027 236.494 37.4811 236.494 35.7949V35.5508C236.494 33.9427 236.924 32.6569 237.783 31.6934C238.643 30.7233 239.814 30.2383 241.299 30.2383C242.555 30.2383 243.577 30.6061 244.365 31.3418C245.16 32.071 245.576 33.0312 245.615 34.2227H243.379C243.353 33.6172 243.145 33.1191 242.754 32.7285C242.37 32.3379 241.878 32.1426 241.279 32.1426C240.511 32.1426 239.919 32.4225 239.502 32.9824C239.085 33.5358 238.874 34.3789 238.867 35.5117V35.8926C238.867 37.0384 239.072 37.8945 239.482 38.4609C239.899 39.0208 240.498 39.3008 241.279 39.3008ZM255.723 32.3184H252.295V41H249.922V32.3184H246.533V30.4336H255.723V32.3184ZM256.572 35.6191C256.572 34.584 256.777 33.653 257.188 32.8262C257.598 31.9928 258.174 31.3548 258.916 30.9121C259.658 30.4629 260.511 30.2383 261.475 30.2383C262.9 30.2383 264.056 30.6973 264.941 31.6152C265.833 32.5332 266.315 33.7507 266.387 35.2676L266.396 35.8242C266.396 36.8659 266.195 37.7969 265.791 38.6172C265.394 39.4375 264.821 40.0723 264.072 40.5215C263.33 40.9707 262.471 41.1953 261.494 41.1953C260.003 41.1953 258.809 40.7005 257.91 39.7109C257.018 38.7148 256.572 37.39 256.572 35.7363V35.6191ZM258.945 35.8242C258.945 36.9115 259.17 37.7643 259.619 38.3828C260.068 38.9948 260.693 39.3008 261.494 39.3008C262.295 39.3008 262.917 38.9883 263.359 38.3633C263.809 37.7383 264.033 36.8236 264.033 35.6191C264.033 34.5514 263.802 33.7051 263.34 33.0801C262.884 32.4551 262.262 32.1426 261.475 32.1426C260.7 32.1426 260.085 32.4518 259.629 33.0703C259.173 33.6823 258.945 34.6003 258.945 35.8242ZM268.584 41V30.4336H272.871C274.316 30.4336 275.417 30.6875 276.172 31.1953C276.927 31.6966 277.305 32.4193 277.305 33.3633C277.305 33.8516 277.152 34.291 276.846 34.6816C276.546 35.0658 276.1 35.362 275.508 35.5703C276.198 35.7135 276.745 36.0033 277.148 36.4395C277.552 36.8757 277.754 37.39 277.754 37.9824C277.754 38.9655 277.389 39.7142 276.66 40.2285C275.938 40.7428 274.896 41 273.535 41H268.584ZM270.957 36.498V39.125H273.555C274.772 39.125 275.381 38.6888 275.381 37.8164C275.381 36.9375 274.762 36.498 273.525 36.498H270.957ZM270.957 34.7988H272.91C274.258 34.7988 274.932 34.4017 274.932 33.6074C274.932 32.7741 274.294 32.3444 273.018 32.3184H270.957V34.7988ZM286.123 41C286.019 40.7982 285.928 40.4694 285.85 40.0137C285.094 40.8014 284.17 41.1953 283.076 41.1953C282.015 41.1953 281.149 40.8926 280.479 40.2871C279.808 39.6816 279.473 38.9329 279.473 38.041C279.473 36.9147 279.889 36.0521 280.723 35.4531C281.562 34.8477 282.76 34.5449 284.316 34.5449H285.771V33.8516C285.771 33.3047 285.618 32.8685 285.312 32.543C285.007 32.2109 284.541 32.0449 283.916 32.0449C283.376 32.0449 282.933 32.1816 282.588 32.4551C282.243 32.722 282.07 33.0638 282.07 33.4805H279.697C279.697 32.901 279.889 32.3607 280.273 31.8594C280.658 31.3516 281.178 30.9544 281.836 30.668C282.5 30.3815 283.239 30.2383 284.053 30.2383C285.29 30.2383 286.276 30.5508 287.012 31.1758C287.747 31.7943 288.125 32.6667 288.145 33.793V38.5586C288.145 39.5091 288.278 40.2676 288.545 40.834V41H286.123ZM283.516 39.291C283.984 39.291 284.424 39.1771 284.834 38.9492C285.251 38.7214 285.563 38.4154 285.771 38.0312V36.0391H284.492C283.613 36.0391 282.952 36.1921 282.51 36.498C282.067 36.804 281.846 37.237 281.846 37.7969C281.846 38.2526 281.995 38.6172 282.295 38.8906C282.601 39.1576 283.008 39.291 283.516 39.291ZM299.58 41H297.207V36.7324H293.096V41H290.723V30.4336H293.096V34.8379H297.207V30.4336H299.58V41ZM311.064 41H308.691V36.7324H304.58V41H302.207V30.4336H304.58V34.8379H308.691V30.4336H311.064V41ZM316.152 33.793H318.477C319.342 33.793 320.098 33.9427 320.742 34.2422C321.387 34.5417 321.875 34.9616 322.207 35.502C322.546 36.0423 322.715 36.6706 322.715 37.3867C322.715 38.474 322.331 39.3464 321.562 40.0039C320.794 40.6615 319.772 40.9935 318.496 41H313.779V30.4336H316.152V33.793ZM326.846 41H324.473V30.4336H326.846V41ZM316.152 35.6973V39.1055H318.467C319.046 39.1055 319.502 38.9622 319.834 38.6758C320.173 38.3828 320.342 37.9694 320.342 37.4355C320.342 36.9017 320.176 36.4818 319.844 36.1758C319.518 35.8633 319.076 35.7038 318.516 35.6973H316.152ZM333.486 33.9102L335.498 30.4336H338.135L334.902 35.6387L338.242 41H335.625L333.516 37.3867L331.416 41H328.779L332.119 35.6387L328.896 30.4336H331.514L333.486 33.9102ZM85.5566 62.3008C86.1491 62.3008 86.6406 62.1283 87.0312 61.7832C87.4219 61.4382 87.6302 61.0117 87.6562 60.5039H89.8926C89.8665 61.1615 89.6615 61.7767 89.2773 62.3496C88.8932 62.916 88.3724 63.3652 87.7148 63.6973C87.0573 64.0293 86.3477 64.1953 85.5859 64.1953C84.1081 64.1953 82.9362 63.7168 82.0703 62.7598C81.2044 61.8027 80.7715 60.4811 80.7715 58.7949V58.5508C80.7715 56.9427 81.2012 55.6569 82.0605 54.6934C82.9199 53.7233 84.0918 53.2383 85.5762 53.2383C86.8327 53.2383 87.8548 53.6061 88.6426 54.3418C89.4368 55.071 89.8535 56.0312 89.8926 57.2227H87.6562C87.6302 56.6172 87.4219 56.1191 87.0312 55.7285C86.6471 55.3379 86.1556 55.1426 85.5566 55.1426C84.7884 55.1426 84.196 55.4225 83.7793 55.9824C83.3626 56.5358 83.151 57.3789 83.1445 58.5117V58.8926C83.1445 60.0384 83.3496 60.8945 83.7598 61.4609C84.1764 62.0208 84.7754 62.3008 85.5566 62.3008ZM100.645 64H98.2715V55.3477H94.1504V64H91.7773V53.4336H100.645V64ZM107.822 64.1953C106.318 64.1953 105.098 63.7233 104.16 62.7793C103.229 61.8288 102.764 60.5658 102.764 58.9902V58.6973C102.764 57.6426 102.965 56.7018 103.369 55.875C103.779 55.0417 104.352 54.3939 105.088 53.9316C105.824 53.4694 106.644 53.2383 107.549 53.2383C108.988 53.2383 110.098 53.6973 110.879 54.6152C111.667 55.5332 112.061 56.832 112.061 58.5117V59.4688H105.156C105.228 60.3411 105.518 61.0312 106.025 61.5391C106.54 62.0469 107.184 62.3008 107.959 62.3008C109.046 62.3008 109.932 61.8613 110.615 60.9824L111.895 62.2031C111.471 62.8346 110.905 63.3262 110.195 63.6777C109.492 64.0228 108.701 64.1953 107.822 64.1953ZM107.539 55.1426C106.888 55.1426 106.361 55.3704 105.957 55.8262C105.56 56.2819 105.306 56.9167 105.195 57.7305H109.717V57.5547C109.665 56.7604 109.453 56.1615 109.082 55.7578C108.711 55.3477 108.197 55.1426 107.539 55.1426ZM114.004 53.4336H116.377V62.1055H120.498V53.4336H122.871V62.1055H124.307L124.111 67.1348H121.953V64H114.004V53.4336ZM132.578 53.4336H134.941V64H132.578V56.9492L128.438 64H126.074V53.4336H128.438V60.4844L132.578 53.4336ZM143.779 64C143.675 63.7982 143.584 63.4694 143.506 63.0137C142.751 63.8014 141.826 64.1953 140.732 64.1953C139.671 64.1953 138.805 63.8926 138.135 63.2871C137.464 62.6816 137.129 61.9329 137.129 61.041C137.129 59.9147 137.546 59.0521 138.379 58.4531C139.219 57.8477 140.417 57.5449 141.973 57.5449H143.428V56.8516C143.428 56.3047 143.275 55.8685 142.969 55.543C142.663 55.2109 142.197 55.0449 141.572 55.0449C141.032 55.0449 140.589 55.1816 140.244 55.4551C139.899 55.722 139.727 56.0638 139.727 56.4805H137.354C137.354 55.901 137.546 55.3607 137.93 54.8594C138.314 54.3516 138.835 53.9544 139.492 53.668C140.156 53.3815 140.895 53.2383 141.709 53.2383C142.946 53.2383 143.932 53.5508 144.668 54.1758C145.404 54.7943 145.781 55.6667 145.801 56.793V61.5586C145.801 62.5091 145.934 63.2676 146.201 63.834V64H143.779ZM141.172 62.291C141.641 62.291 142.08 62.1771 142.49 61.9492C142.907 61.7214 143.219 61.4154 143.428 61.0312V59.0391H142.148C141.27 59.0391 140.609 59.1921 140.166 59.498C139.723 59.804 139.502 60.237 139.502 60.7969C139.502 61.2526 139.652 61.6172 139.951 61.8906C140.257 62.1576 140.664 62.291 141.172 62.291ZM157.266 53.4336V64H154.893V55.3477H151.904L151.709 59.0293C151.585 60.8001 151.243 62.0729 150.684 62.8477C150.13 63.6159 149.281 64 148.135 64H147.402L147.393 62.0273L147.881 61.9785C148.402 61.9069 148.779 61.5911 149.014 61.0312C149.255 60.4648 149.408 59.4362 149.473 57.9453L149.668 53.4336H157.266ZM166.387 53.4336H168.75V64H166.387V56.9492L162.246 64H159.883V53.4336H162.246V60.4844L166.387 53.4336ZM175.615 62.3008C176.208 62.3008 176.699 62.1283 177.09 61.7832C177.48 61.4382 177.689 61.0117 177.715 60.5039H179.951C179.925 61.1615 179.72 61.7767 179.336 62.3496C178.952 62.916 178.431 63.3652 177.773 63.6973C177.116 64.0293 176.406 64.1953 175.645 64.1953C174.167 64.1953 172.995 63.7168 172.129 62.7598C171.263 61.8027 170.83 60.4811 170.83 58.7949V58.5508C170.83 56.9427 171.26 55.6569 172.119 54.6934C172.979 53.7233 174.15 53.2383 175.635 53.2383C176.891 53.2383 177.913 53.6061 178.701 54.3418C179.495 55.071 179.912 56.0312 179.951 57.2227H177.715C177.689 56.6172 177.48 56.1191 177.09 55.7285C176.706 55.3379 176.214 55.1426 175.615 55.1426C174.847 55.1426 174.255 55.4225 173.838 55.9824C173.421 56.5358 173.21 57.3789 173.203 58.5117V58.8926C173.203 60.0384 173.408 60.8945 173.818 61.4609C174.235 62.0208 174.834 62.3008 175.615 62.3008ZM190.059 55.3184H186.631V64H184.258V55.3184H180.869V53.4336H190.059V55.3184ZM190.908 58.6191C190.908 57.584 191.113 56.653 191.523 55.8262C191.934 54.9928 192.51 54.3548 193.252 53.9121C193.994 53.4629 194.847 53.2383 195.811 53.2383C197.236 53.2383 198.392 53.6973 199.277 54.6152C200.169 55.5332 200.651 56.7507 200.723 58.2676L200.732 58.8242C200.732 59.8659 200.531 60.7969 200.127 61.6172C199.73 62.4375 199.157 63.0723 198.408 63.5215C197.666 63.9707 196.807 64.1953 195.83 64.1953C194.339 64.1953 193.145 63.7005 192.246 62.7109C191.354 61.7148 190.908 60.39 190.908 58.7363V58.6191ZM193.281 58.8242C193.281 59.9115 193.506 60.7643 193.955 61.3828C194.404 61.9948 195.029 62.3008 195.83 62.3008C196.631 62.3008 197.253 61.9883 197.695 61.3633C198.145 60.7383 198.369 59.8236 198.369 58.6191C198.369 57.5514 198.138 56.7051 197.676 56.0801C197.22 55.4551 196.598 55.1426 195.811 55.1426C195.036 55.1426 194.421 55.4518 193.965 56.0703C193.509 56.6823 193.281 57.6003 193.281 58.8242ZM202.92 64V53.4336H207.207C208.652 53.4336 209.753 53.6875 210.508 54.1953C211.263 54.6966 211.641 55.4193 211.641 56.3633C211.641 56.8516 211.488 57.291 211.182 57.6816C210.882 58.0658 210.436 58.362 209.844 58.5703C210.534 58.7135 211.081 59.0033 211.484 59.4395C211.888 59.8757 212.09 60.39 212.09 60.9824C212.09 61.9655 211.725 62.7142 210.996 63.2285C210.273 63.7428 209.232 64 207.871 64H202.92ZM205.293 59.498V62.125H207.891C209.108 62.125 209.717 61.6888 209.717 60.8164C209.717 59.9375 209.098 59.498 207.861 59.498H205.293ZM205.293 57.7988H207.246C208.594 57.7988 209.268 57.4017 209.268 56.6074C209.268 55.7741 208.63 55.3444 207.354 55.3184H205.293V57.7988ZM228.379 58.8242C228.379 60.4583 228.008 61.7637 227.266 62.7402C226.523 63.7103 225.527 64.1953 224.277 64.1953C223.118 64.1953 222.191 63.8145 221.494 63.0527V68.0625H219.121V53.4336H221.309L221.406 54.5078C222.103 53.6615 223.05 53.2383 224.248 53.2383C225.537 53.2383 226.546 53.7201 227.275 54.6836C228.011 55.6406 228.379 56.972 228.379 58.6777V58.8242ZM226.016 58.6191C226.016 57.5645 225.804 56.7279 225.381 56.1094C224.964 55.4909 224.365 55.1816 223.584 55.1816C222.614 55.1816 221.917 55.582 221.494 56.3828V61.0703C221.924 61.8906 222.627 62.3008 223.604 62.3008C224.359 62.3008 224.948 61.998 225.371 61.3926C225.801 60.7806 226.016 59.8561 226.016 58.6191ZM232.949 56.793H235.273C236.139 56.793 236.895 56.9427 237.539 57.2422C238.184 57.5417 238.672 57.9616 239.004 58.502C239.342 59.0423 239.512 59.6706 239.512 60.3867C239.512 61.474 239.128 62.3464 238.359 63.0039C237.591 63.6615 236.569 63.9935 235.293 64H230.576V53.4336H232.949V56.793ZM243.643 64H241.27V53.4336H243.643V64ZM232.949 58.6973V62.1055H235.264C235.843 62.1055 236.299 61.9622 236.631 61.6758C236.969 61.3828 237.139 60.9694 237.139 60.4355C237.139 59.9017 236.973 59.4818 236.641 59.1758C236.315 58.8633 235.872 58.7038 235.312 58.6973H232.949ZM255.439 64H253.066V59.7324H248.955V64H246.582V53.4336H248.955V57.8379H253.066V53.4336H255.439V64ZM261.729 59.8203H260.527V64H258.154V53.4336H260.527V57.6523H261.572L264.492 53.4336H267.422L263.604 58.4922L267.744 64H264.658L261.729 59.8203ZM275.361 64C275.257 63.7982 275.166 63.4694 275.088 63.0137C274.333 63.8014 273.408 64.1953 272.314 64.1953C271.253 64.1953 270.387 63.8926 269.717 63.2871C269.046 62.6816 268.711 61.9329 268.711 61.041C268.711 59.9147 269.128 59.0521 269.961 58.4531C270.801 57.8477 271.999 57.5449 273.555 57.5449H275.01V56.8516C275.01 56.3047 274.857 55.8685 274.551 55.543C274.245 55.2109 273.779 55.0449 273.154 55.0449C272.614 55.0449 272.171 55.1816 271.826 55.4551C271.481 55.722 271.309 56.0638 271.309 56.4805H268.936C268.936 55.901 269.128 55.3607 269.512 54.8594C269.896 54.3516 270.417 53.9544 271.074 53.668C271.738 53.3815 272.477 53.2383 273.291 53.2383C274.528 53.2383 275.514 53.5508 276.25 54.1758C276.986 54.7943 277.363 55.6667 277.383 56.793V61.5586C277.383 62.5091 277.516 63.2676 277.783 63.834V64H275.361ZM272.754 62.291C273.223 62.291 273.662 62.1771 274.072 61.9492C274.489 61.7214 274.801 61.4154 275.01 61.0312V59.0391H273.73C272.852 59.0391 272.191 59.1921 271.748 59.498C271.305 59.804 271.084 60.237 271.084 60.7969C271.084 61.2526 271.234 61.6172 271.533 61.8906C271.839 62.1576 272.246 62.291 272.754 62.291ZM293.799 64H291.426V59.7324H287.314V64H284.941V53.4336H287.314V57.8379H291.426V53.4336H293.799V64ZM300.986 64.1953C299.482 64.1953 298.262 63.7233 297.324 62.7793C296.393 61.8288 295.928 60.5658 295.928 58.9902V58.6973C295.928 57.6426 296.13 56.7018 296.533 55.875C296.943 55.0417 297.516 54.3939 298.252 53.9316C298.988 53.4694 299.808 53.2383 300.713 53.2383C302.152 53.2383 303.262 53.6973 304.043 54.6152C304.831 55.5332 305.225 56.832 305.225 58.5117V59.4688H298.32C298.392 60.3411 298.682 61.0312 299.189 61.5391C299.704 62.0469 300.348 62.3008 301.123 62.3008C302.21 62.3008 303.096 61.8613 303.779 60.9824L305.059 62.2031C304.635 62.8346 304.069 63.3262 303.359 63.6777C302.656 64.0228 301.865 64.1953 300.986 64.1953ZM300.703 55.1426C300.052 55.1426 299.525 55.3704 299.121 55.8262C298.724 56.2819 298.47 56.9167 298.359 57.7305H302.881V57.5547C302.829 56.7604 302.617 56.1615 302.246 55.7578C301.875 55.3477 301.361 55.1426 300.703 55.1426ZM307.119 62.1055C307.777 61.3698 308.216 60.6732 308.438 60.0156C308.665 59.3516 308.802 58.5052 308.848 57.4766L308.984 53.4336H316.318V62.1055H317.783V67.1445H315.42V64H308.643V67.1445H306.24L306.25 62.1055H307.119ZM309.902 62.1055H313.955V55.4746H311.289L311.221 57.4961C311.13 59.4362 310.69 60.9727 309.902 62.1055ZM319.658 64V53.4336H323.945C325.391 53.4336 326.491 53.6875 327.246 54.1953C328.001 54.6966 328.379 55.4193 328.379 56.3633C328.379 56.8516 328.226 57.291 327.92 57.6816C327.62 58.0658 327.174 58.362 326.582 58.5703C327.272 58.7135 327.819 59.0033 328.223 59.4395C328.626 59.8757 328.828 60.39 328.828 60.9824C328.828 61.9655 328.464 62.7142 327.734 63.2285C327.012 63.7428 325.97 64 324.609 64H319.658ZM322.031 59.498V62.125H324.629C325.846 62.125 326.455 61.6888 326.455 60.8164C326.455 59.9375 325.837 59.498 324.6 59.498H322.031ZM322.031 57.7988H323.984C325.332 57.7988 326.006 57.4017 326.006 56.6074C326.006 55.7741 325.368 55.3444 324.092 55.3184H322.031V57.7988ZM337.48 53.4336H339.844V64H337.48V56.9492L333.34 64H330.977V53.4336H333.34V60.4844L337.48 53.4336ZM351.67 59.752H350.41V64H348.037V59.752H346.787L344.355 64H341.445L344.951 58.502L341.631 53.4336H344.531L346.924 57.584H348.037V53.4336H350.41V57.584H351.533L353.936 53.4336H356.836L353.525 58.4727L357.051 64H354.102L351.67 59.752ZM365.117 53.4336H367.48V64H365.117V56.9492L360.977 64H358.613V53.4336H360.977V60.4844L365.117 53.4336ZM376.279 61.0801L379.404 53.4336H382.373V64H380V57.0078L377.09 64H375.479L372.559 56.9688V64H370.186V53.4336H373.174L376.279 61.0801ZM384.6 58.6191C384.6 57.584 384.805 56.653 385.215 55.8262C385.625 54.9928 386.201 54.3548 386.943 53.9121C387.686 53.4629 388.538 53.2383 389.502 53.2383C390.928 53.2383 392.083 53.6973 392.969 54.6152C393.861 55.5332 394.342 56.7507 394.414 58.2676L394.424 58.8242C394.424 59.8659 394.222 60.7969 393.818 61.6172C393.421 62.4375 392.848 63.0723 392.1 63.5215C391.357 63.9707 390.498 64.1953 389.521 64.1953C388.031 64.1953 386.836 63.7005 385.938 62.7109C385.046 61.7148 384.6 60.39 384.6 58.7363V58.6191ZM386.973 58.8242C386.973 59.9115 387.197 60.7643 387.646 61.3828C388.096 61.9948 388.721 62.3008 389.521 62.3008C390.322 62.3008 390.944 61.9883 391.387 61.3633C391.836 60.7383 392.061 59.8236 392.061 58.6191C392.061 57.5514 391.829 56.7051 391.367 56.0801C390.911 55.4551 390.29 55.1426 389.502 55.1426C388.727 55.1426 388.112 55.4518 387.656 56.0703C387.201 56.6823 386.973 57.6003 386.973 58.8242ZM400.771 62.3008C401.364 62.3008 401.855 62.1283 402.246 61.7832C402.637 61.4382 402.845 61.0117 402.871 60.5039H405.107C405.081 61.1615 404.876 61.7767 404.492 62.3496C404.108 62.916 403.587 63.3652 402.93 63.6973C402.272 64.0293 401.562 64.1953 400.801 64.1953C399.323 64.1953 398.151 63.7168 397.285 62.7598C396.419 61.8027 395.986 60.4811 395.986 58.7949V58.5508C395.986 56.9427 396.416 55.6569 397.275 54.6934C398.135 53.7233 399.307 53.2383 400.791 53.2383C402.048 53.2383 403.07 53.6061 403.857 54.3418C404.652 55.071 405.068 56.0312 405.107 57.2227H402.871C402.845 56.6172 402.637 56.1191 402.246 55.7285C401.862 55.3379 401.37 55.1426 400.771 55.1426C400.003 55.1426 399.411 55.4225 398.994 55.9824C398.577 56.5358 398.366 57.3789 398.359 58.5117V58.8926C398.359 60.0384 398.564 60.8945 398.975 61.4609C399.391 62.0208 399.99 62.3008 400.771 62.3008ZM415.215 55.3184H411.787V64H409.414V55.3184H406.025V53.4336H415.215V55.3184ZM423.398 53.4336H425.762V64H423.398V56.9492L419.258 64H416.895V53.4336H419.258V60.4844L423.398 53.4336Z" fill="#EBEAEA"/>
<path d="M62 2H0V64H62V2Z" fill="#F24F00"/>
<path fill-rule="evenodd" clip-rule="evenodd" d="M6.65614 52.5495L33.467 6.00299L46.3138 28.2522H27.4159L13.4054 52.5495H6.65614ZM33.4204 18.0585L35.7943 22.4805H30.6276L33.4204 18.0585Z" fill="white"/>
<path fill-rule="evenodd" clip-rule="evenodd" d="M16.6636 52.4565L29.8829 29.9745L47.4775 30.0676L50.4099 35.5601H33.1411L23.8318 52.4565H16.6636Z" fill="white"/>
<path fill-rule="evenodd" clip-rule="evenodd" d="M4.79425 54.6907H26.2057L35.7012 38.2598H51.8994L60.1381 52.5496H34.072L29.7898 60.0435H1.86182L4.79425 54.6907ZM36.6321 47.2898L38.7267 43.6592H49.2462L51.4339 47.3829L36.6321 47.2898Z" fill="white"/>
</svg>
