<svg width="49" height="60" viewBox="0 0 49 60" fill="none" xmlns="http://www.w3.org/2000/svg">
<path d="M23.2116 0.0152711C11.2239 0.43354 1.26509 9.73388 0.114564 21.6053C-0.120488 23.9796 0.0155952 26.2801 0.436216 28.4822C0.436216 28.4822 0.473329 28.7405 0.597041 29.2326C0.968177 30.8811 1.52488 32.4803 2.21767 33.9812C4.63005 39.6647 10.2095 49.1742 22.7291 59.5202C23.4961 60.1599 24.6219 60.1599 25.4013 59.5202C37.9209 49.1865 43.5003 39.677 45.9251 33.9689C46.6302 32.468 47.1746 30.8811 47.5457 29.2203C47.6571 28.7405 47.7065 28.4699 47.7065 28.4699C47.9911 26.9936 48.1395 25.4805 48.1395 23.9304C48.1395 10.4228 36.8941 -0.464508 23.2116 0.0152711ZM24.0652 35.8388C17.6074 35.8388 12.3744 30.635 12.3744 24.2134C12.3744 17.7917 17.6074 12.588 24.0652 12.588C30.523 12.588 35.756 17.7917 35.756 24.2134C35.756 30.635 30.523 35.8388 24.0652 35.8388Z" fill="#5575FE"/>
</svg>
