<?xml version="1.0" encoding="utf-8"?><svg xmlns="http://www.w3.org/2000/svg" xmlns:xlink="http://www.w3.org/1999/xlink"><symbol viewBox="0 0 18 21" id="contacts-address" xmlns="http://www.w3.org/2000/svg"><path fill-rule="evenodd" clip-rule="evenodd" d="M17.34 11.47c-.26.698-.674 1.383-1.23 2.029l-6.167 7.243a.734.734 0 0 1-1.118 0l-6.168-7.245c-.554-.642-.97-1.327-1.23-2.032C.45 8.882.818 5.96 2.413 3.65 4.017 1.331 6.558 0 9.384 0c2.827 0 5.367 1.331 6.97 3.651 1.596 2.309 1.964 5.231.986 7.818zm-2.193-6.984a6.916 6.916 0 0 0-5.763-3.018c-2.337 0-4.437 1.1-5.762 3.018-1.321 1.912-1.628 4.329-.82 6.464.202.545.528 1.079.97 1.591l5.612 6.592 5.609-6.588.003-.004c.443-.513.77-1.046.969-1.586.81-2.14.503-4.557-.818-6.469zm-1.65 3.983a4.116 4.116 0 0 1-4.113 4.111 4.116 4.116 0 0 1-4.112-4.11 4.117 4.117 0 0 1 4.112-4.112 4.117 4.117 0 0 1 4.112 4.112zm-1.47 0a2.646 2.646 0 0 0-2.643-2.644 2.646 2.646 0 0 0-2.643 2.644 2.646 2.646 0 0 0 2.643 2.643 2.646 2.646 0 0 0 2.643-2.643z"/></symbol><symbol viewBox="0 0 21 21" id="contacts-phone" xmlns="http://www.w3.org/2000/svg"><path fill-rule="evenodd" clip-rule="evenodd" d="M20.46 18.1l-.95.949a6.653 6.653 0 0 1-9.414 0l-8.149-8.154a6.664 6.664 0 0 1 0-9.414l.951-.943a1.848 1.848 0 0 1 2.61.002l2.61 2.602a1.844 1.844 0 0 1 0 2.61L6.93 6.94a1.398 1.398 0 0 0 0 1.978l5.143 5.148a1.4 1.4 0 0 0 1.978 0l1.187-1.187c.72-.72 1.89-.72 2.61 0l2.61 2.61c.72.72.72 1.892 0 2.611zM3.334 1.84l3.478 3.478.436-.435c.24-.24.24-.63 0-.87L4.638 1.41a.616.616 0 0 0-.871 0l-.433.428zm14.934 16.678l-3.469-3.469a2.626 2.626 0 0 1-3.595-.114L6.06 9.788a2.627 2.627 0 0 1-.115-3.596L2.478 2.724a5.41 5.41 0 0 0 .34 7.3l8.149 8.155a5.399 5.399 0 0 0 7.3.34zm1.322-2.159l-2.611-2.61a.616.616 0 0 0-.87 0l-.435.435 3.48 3.48.436-.435c.24-.24.24-.63 0-.87z"/></symbol><symbol viewBox="0 0 22 22" id="soc-fb" xmlns="http://www.w3.org/2000/svg"><path d="M12.485 21.957h-3.53a1.07 1.07 0 0 1-1.069-1.067v-7.947h-2.06a1.07 1.07 0 0 1-1.069-1.067V8.471c0-.588.48-1.067 1.07-1.067h2.059V5.699c0-1.691.532-3.13 1.538-4.16C10.434.504 11.847-.043 13.51-.043l2.692.004a1.07 1.07 0 0 1 1.067 1.068V4.19A1.07 1.07 0 0 1 16.2 5.257l-1.813.001c-.553 0-.694.11-.724.144-.05.057-.108.216-.108.655v1.347h2.508a1.07 1.07 0 0 1 1.08 1.068l-.002 3.404a1.07 1.07 0 0 1-1.069 1.067h-2.517v7.947a1.07 1.07 0 0 1-1.07 1.067zm-3.307-1.29h3.084v-8.301c0-.393.32-.713.714-.713h2.873l.001-2.96h-2.874a.714.714 0 0 1-.714-.712V6.057c0-.504.052-1.077.433-1.508.46-.52 1.186-.58 1.692-.58l1.59-.001V1.25l-2.469-.004c-2.67 0-4.33 1.706-4.33 4.452V7.98c0 .393-.32.713-.713.713H6.05v2.96h2.415c.393 0 .713.319.713.712v8.301zm7.02-19.416z"/></symbol><symbol viewBox="0 0 22 22" id="soc-inst" xmlns="http://www.w3.org/2000/svg"><path d="M16.045 0H5.955A5.962 5.962 0 0 0 0 5.955v10.09A5.962 5.962 0 0 0 5.955 22h10.09A5.962 5.962 0 0 0 22 16.045V5.955A5.962 5.962 0 0 0 16.045 0zm4.665 16.045a4.67 4.67 0 0 1-4.665 4.665H5.955a4.67 4.67 0 0 1-4.665-4.665V5.955A4.67 4.67 0 0 1 5.955 1.29h10.09a4.67 4.67 0 0 1 4.665 4.665v10.09zM11 4.985A6.022 6.022 0 0 0 4.985 11 6.022 6.022 0 0 0 11 17.015 6.022 6.022 0 0 0 17.015 11 6.022 6.022 0 0 0 11 4.985zm0 10.74A4.731 4.731 0 0 1 6.274 11 4.731 4.731 0 0 1 11 6.274 4.731 4.731 0 0 1 15.726 11 4.731 4.731 0 0 1 11 15.726zm6.16-12.877a1.78 1.78 0 0 0-1.778 1.778c0 .98.797 1.777 1.777 1.777a1.78 1.78 0 0 0 1.778-1.777 1.78 1.78 0 0 0-1.778-1.778zm0 2.265a.488.488 0 1 1 0-.976.488.488 0 0 1 0 .976z"/></symbol><symbol viewBox="0 0 22 22" id="soc-ok" xmlns="http://www.w3.org/2000/svg"><path d="M17.621 11.444c-.555-1.085-1.907-1.496-3.231-.456-.013.01-1.324 1.016-3.387 1.016-2.064 0-3.375-1.007-3.387-1.016-1.319-1.041-2.682-.633-3.233.458l-.005.01c-.82 1.678.534 2.552 1.624 3.255.674.434 1.536.761 2.57.978l-2.937 2.944c-1.774 1.77 1.005 4.563 2.797 2.811l2.58-2.592c.993.995 1.918 1.923 2.585 2.602 1.77 1.738 4.567-1.007 2.803-2.817-2.104-2.102-2.556-2.556-2.954-2.947 2.196-.47 5.251-2.012 4.175-4.246zm-5.523 3.075c-.475-.228-1.105.639-.587 1.178l.006.005.004.004.004.005 3.895 3.89c.493.508-.376 1.346-.853.88-.853-.867-2.205-2.221-3.071-3.09a.687.687 0 0 0-.974 0l-3.06 3.075c-.484.474-1.349-.372-.857-.862l3.89-3.898.005-.005c.483-.475-.005-1.355-.573-1.188-1.354-.158-2.452-.489-3.182-.958-1.412-.912-1.341-1.073-1.137-1.492.594-1.137 1.646 1.316 5.393 1.316 2.566 0 4.175-1.26 4.239-1.311.418-.328.908-.482 1.15-.013.203.424.28.583-1.136 1.502-.966.615-2.332.864-3.156.962zM11 9.164a3.254 3.254 0 0 0 3.248-3.252c0-1.8-1.457-3.266-3.248-3.266-1.79 0-3.247 1.465-3.247 3.266A3.252 3.252 0 0 0 11 9.164zm0-5.143c1.032 0 1.873.848 1.873 1.89 0 1.036-.84 1.878-1.873 1.878a1.878 1.878 0 0 1-1.873-1.878c0-1.042.84-1.89 1.873-1.89zm0 7.788c3.253 0 5.9-2.646 5.9-5.898C16.9 2.65 14.253 0 11 0 7.747 0 5.1 2.652 5.1 5.91a5.906 5.906 0 0 0 5.9 5.9zm0-10.434a4.53 4.53 0 1 1 0 9.06 4.53 4.53 0 0 1 0-9.06z"/></symbol><symbol viewBox="0 0 22 22" id="soc-vk" xmlns="http://www.w3.org/2000/svg"><path d="M11.133 17.875c3.183 0 2.048-2.015 2.293-2.594-.003-.433-.007-.849.008-1.102.201.057.677.298 1.66 1.253 1.517 1.53 1.905 2.443 3.13 2.443h2.256c.715 0 1.087-.296 1.273-.544.18-.24.356-.662.164-1.319-.504-1.58-3.439-4.309-3.621-4.597.027-.053.071-.123.094-.16h-.002c.58-.766 2.79-4.078 3.116-5.404l.002-.007c.176-.605.015-.998-.152-1.22-.251-.331-.651-.499-1.191-.499h-2.256c-.755 0-1.328.38-1.618 1.074-.485 1.233-1.847 3.769-2.868 4.666a58.735 58.735 0 0 1 .006-2.963c.033-1.407.14-2.777-1.32-2.777H8.56c-.915 0-1.79 1-.843 2.185.829 1.04.298 1.62.477 4.503-.697-.747-1.936-2.765-2.812-5.343-.246-.698-.618-1.344-1.666-1.344H1.461C.546 4.126 0 4.625 0 5.46c0 1.875 4.152 12.415 11.133 12.415zM3.717 5.501c.199 0 .22 0 .367.419.897 2.643 2.91 6.553 4.38 6.553 1.105 0 1.105-1.132 1.105-1.558V7.52c-.062-1.122-.471-1.68-.739-2.02l3.216.004c.002.015-.018 3.753.01 4.66 0 1.285 1.02 2.022 2.614.409 1.682-1.899 2.846-4.737 2.892-4.852.07-.165.129-.221.345-.221h2.266l-.003.008c-.206.963-2.242 4.03-2.923 4.982a.821.821 0 0 0-.031.046c-.3.49-.544 1.03.041 1.791h.001c.053.065.192.215.393.424.627.647 2.778 2.86 2.968 3.74-.126.02-.264.005-2.395.01-.454 0-.808-.678-2.162-2.044-1.218-1.185-2.008-1.669-2.727-1.669-1.397 0-1.296 1.134-1.283 2.506.005 1.486-.004 1.016.006 1.11-.082.032-.316.096-.925.096-5.816 0-9.604-9.232-9.75-10.996.05-.005.745-.002 2.334-.003z"/></symbol></svg>