<svg width="18" height="21" viewBox="0 0 18 21" xmlns="http://www.w3.org/2000/svg"><path fill-rule="evenodd" clip-rule="evenodd" d="M17.3401 11.4692C17.0809 12.1685 16.6663 12.8531 16.1093 13.4987L9.94339 20.7416C9.80353 20.9057 9.59927 21 9.38435 21C9.16901 21 8.96476 20.9057 8.8253 20.7416L2.65737 13.4966C2.10284 12.8547 1.68776 12.1697 1.42649 11.4647C0.450323 8.88234 0.818643 5.95998 2.41374 3.65121C4.01704 1.33096 6.55755 0 9.38435 0C12.2107 0 14.7512 1.33096 16.3545 3.65121C17.95 5.95998 18.3184 8.88234 17.3401 11.4692ZM15.1466 4.48629C13.8214 2.5684 11.721 1.46836 9.38435 1.46836C7.04728 1.46836 4.94687 2.5684 3.62165 4.48629C2.30054 6.39803 1.99415 8.81467 2.80175 10.9499C3.00355 11.495 3.32962 12.0287 3.77177 12.5413L9.38435 19.1334L14.9928 12.5454C14.9941 12.5438 14.9953 12.5426 14.9965 12.5413C15.4391 12.0282 15.7651 11.4946 15.9649 10.9549C16.7745 8.81467 16.4677 6.39803 15.1466 4.48629Z M13.4962 8.4685C13.4962 10.7358 11.6517 12.5803 9.38435 12.5803C7.11659 12.5803 5.27212 10.7358 5.27212 8.4685C5.27212 6.20115 7.117 4.35668 9.38435 4.35668C11.6513 4.35668 13.4962 6.20115 13.4962 8.4685ZM12.0274 8.4685C12.0274 7.0108 10.8416 5.82504 9.38435 5.82504C7.92665 5.82504 6.74089 7.0108 6.74089 8.4685C6.74089 9.92619 7.92665 11.112 9.38435 11.112C10.8416 11.112 12.0274 9.92619 12.0274 8.4685Z"/></svg>