<svg width="21" height="21" viewBox="0 0 21 21" xmlns="http://www.w3.org/2000/svg"><path fill-rule="evenodd" clip-rule="evenodd" d="M20.4599 18.0994L19.5104 19.0489C16.9088 21.6505 12.6981 21.6505 10.0965 19.0489L1.94709 10.895C-0.648379 8.2995 -0.648379 4.07653 1.94709 1.48106C2.18785 1.24234 2.36135 1.07049 2.89824 0.538105C3.61602 -0.179669 4.78742 -0.179669 5.50725 0.540156L8.11707 3.14178C8.84428 3.86899 8.83443 5.0363 8.11748 5.75284C7.67082 6.1995 7.12203 6.74829 6.9309 6.93942C6.38457 7.48616 6.38457 8.37087 6.9309 8.9172L12.0743 14.0651C12.6194 14.6098 13.5065 14.6102 14.052 14.0647L15.2386 12.8781C15.9584 12.1587 17.1294 12.1587 17.8493 12.8781L20.4599 15.4887C21.1797 16.2086 21.1797 17.3796 20.4599 18.0994ZM3.33383 1.83912L6.81236 5.31766L7.24754 4.8829C7.48789 4.64213 7.48789 4.2529 7.24754 4.01254L4.63772 1.41092C4.39695 1.17016 4.00648 1.17016 3.76654 1.4101L3.33383 1.83912ZM18.2676 18.5181L14.7993 15.0495C13.7649 15.9621 12.1907 15.9219 11.2039 14.935L6.06055 9.78755C5.07289 8.79948 5.03475 7.2253 5.94611 6.19212L2.47783 2.72383C0.698984 4.86362 0.809317 8.0169 2.81744 10.0246L10.9668 18.1785C12.9889 20.2006 16.1348 20.2941 18.2676 18.5181ZM19.5896 16.3591L16.9789 13.7484C16.739 13.5085 16.3489 13.5085 16.109 13.7484L15.6738 14.1836L19.1544 17.6642L19.5896 17.229C19.8295 16.9895 19.8295 16.599 19.5896 16.3591Z"/></svg>