<svg width="22" height="22" viewBox="0 0 22 22" xmlns="http://www.w3.org/2000/svg"><path d="M16.0448 0H5.95519C2.67144 0 0 2.67144 0 5.95519V16.0449C0 19.3285 2.67144 22 5.95519 22H16.0449C19.3285 22 22 19.3285 22 16.0449V5.95519C22 2.67144 19.3285 0 16.0448 0V0ZM20.7102 16.0449C20.7102 18.6174 18.6174 20.7102 16.0448 20.7102H5.95519C3.38261 20.7102 1.28973 18.6174 1.28973 16.0449V5.95519C1.28973 3.38261 3.38261 1.28973 5.95519 1.28973H16.0449C18.6174 1.28973 20.7102 3.38261 20.7102 5.95519V16.0449Z M11.0001 4.98462C7.68309 4.98462 4.98462 7.68309 4.98462 11.0001C4.98462 14.317 7.68309 17.0155 11.0001 17.0155C14.317 17.0155 17.0155 14.317 17.0155 11.0001C17.0155 7.68309 14.317 4.98462 11.0001 4.98462V4.98462ZM11.0001 15.7258C8.39442 15.7258 6.27435 13.6059 6.27435 11.0001C6.27435 8.39442 8.39442 6.27435 11.0001 6.27435C13.6059 6.27435 15.7258 8.39442 15.7258 11.0001C15.7258 13.6059 13.6059 15.7258 11.0001 15.7258V15.7258Z M17.1593 2.84814C16.1791 2.84814 15.3818 3.64558 15.3818 4.62564C15.3818 5.60586 16.1791 6.4033 17.1593 6.4033C18.1396 6.4033 18.937 5.60586 18.937 4.62564C18.937 3.64541 18.1396 2.84814 17.1593 2.84814ZM17.1593 5.1134C16.8904 5.1134 16.6716 4.89453 16.6716 4.62564C16.6716 4.35658 16.8904 4.13788 17.1593 4.13788C17.4284 4.13788 17.6473 4.35658 17.6473 4.62564C17.6473 4.89453 17.4284 5.1134 17.1593 5.1134Z"/></svg>