<svg width="22" height="22" viewBox="0 0 22 22" xmlns="http://www.w3.org/2000/svg"><path d="M12.4853 21.957H8.95531C8.36569 21.957 7.88605 21.4783 7.88605 20.8899V12.9433H5.82658C5.23696 12.9433 4.75732 12.4645 4.75732 11.8762V8.47105C4.75732 7.88258 5.23696 7.40389 5.82658 7.40389H7.88605V5.69873C7.88605 4.00801 8.41799 2.56957 9.42418 1.53915C10.4349 0.504044 11.8474 -0.0429688 13.509 -0.0429688L16.2011 -0.0386048C16.7898 -0.0375977 17.2685 0.441101 17.2685 1.02856V4.19012C17.2685 4.7786 16.7891 5.25729 16.1996 5.25729L14.387 5.25797C13.8342 5.25797 13.6935 5.36858 13.6634 5.40248C13.6138 5.45871 13.5547 5.61766 13.5547 6.05658V7.40372H16.0634C16.2523 7.40372 16.4352 7.45021 16.5925 7.53783C16.9317 7.72699 17.1426 8.08467 17.1426 8.47122L17.1412 11.8763C17.1412 12.4645 16.6616 12.9432 16.072 12.9432H13.5547V20.8899C13.5547 21.4783 13.0749 21.957 12.4853 21.957V21.957ZM9.17831 20.6673H12.2623V12.3659C12.2623 11.973 12.5827 11.6534 12.9762 11.6534H15.849L15.8502 8.69362H12.976C12.5825 8.69362 12.2623 8.37404 12.2623 7.98111V6.05658C12.2623 5.5527 12.3136 4.97968 12.6947 4.54898C13.1552 4.02832 13.8808 3.96823 14.3867 3.96823L15.9763 3.96756V1.25079L13.508 1.24677C10.8377 1.24677 9.17831 2.95276 9.17831 5.69873V7.98111C9.17831 8.37387 8.85811 8.69362 8.46458 8.69362H6.04958V11.6534H8.46458C8.85811 11.6534 9.17831 11.973 9.17831 12.3659V20.6673ZM16.1986 1.25113H16.1988H16.1986Z"/></svg>