<svg width="22" height="22" viewBox="0 0 22 22" xmlns="http://www.w3.org/2000/svg"><path d="M17.6211 11.4435C17.0656 10.3591 15.7135 9.94755 14.3898 10.988C14.377 10.9981 13.0662 12.0036 11.0027 12.0036C8.93932 12.0036 7.62849 10.9971 7.61566 10.988C6.29749 9.94664 4.93441 10.3546 4.38257 11.4463C4.38074 11.449 4.37982 11.4518 4.37799 11.4555C3.55757 13.1339 4.91241 14.0084 6.00232 14.7115C6.67607 15.145 7.53774 15.4723 8.57266 15.6886L5.63474 18.6329C3.86099 20.403 6.64032 23.1961 8.43241 21.4444L11.0119 18.852C12.0047 19.8466 12.9296 20.7752 13.5969 21.4544C15.3661 23.1915 18.1637 20.447 16.4001 18.6366C14.2963 16.5347 13.8435 16.081 13.4457 15.6895C15.642 15.2193 18.6972 13.6784 17.6211 11.4435V11.4435ZM12.0982 14.519C11.6233 14.2907 10.9927 15.1579 11.5115 15.6969L11.517 15.7024C11.5179 15.7033 11.5197 15.7051 11.5207 15.706C11.5225 15.7079 11.5234 15.7097 11.5252 15.7106C11.7892 15.9737 15.3413 19.5221 15.4202 19.6019C15.9133 20.1088 15.0443 20.9466 14.5667 20.4809C13.7142 19.6138 12.3622 18.2599 11.4959 17.3918C11.2282 17.1232 10.791 17.1214 10.5224 17.3918L7.46257 20.4663C6.97766 20.9402 6.11324 20.0941 6.60457 19.6037L10.4949 15.706C10.4967 15.7042 10.4986 15.7024 10.4995 15.7005C10.9826 15.2257 10.4949 14.3457 9.92657 14.5135C8.57266 14.3549 7.47541 14.024 6.74482 13.5546C5.33316 12.6425 5.40374 12.4821 5.60816 12.0632C6.20216 10.9256 7.25449 13.3786 11.0009 13.3786C13.5667 13.3786 15.1763 12.1182 15.2396 12.0678C15.6576 11.7396 16.148 11.5865 16.3891 12.055C16.5935 12.4794 16.6696 12.638 15.2542 13.5574C14.2881 14.1725 12.9222 14.4209 12.0982 14.519Z M10.999 9.16398C12.7902 9.16398 14.2468 7.70465 14.2468 5.91165C14.2468 4.11132 12.7902 2.64648 10.999 2.64648C9.20878 2.64648 7.7522 4.11132 7.7522 5.91165C7.75128 7.70465 9.20787 9.16398 10.999 9.16398V9.16398ZM10.999 4.02148C12.0312 4.02148 12.8718 4.8694 12.8718 5.91165C12.8718 6.94657 12.0312 7.78898 10.999 7.78898C9.96687 7.78898 9.12628 6.94657 9.12628 5.91073C9.12628 4.8694 9.96595 4.02148 10.999 4.02148V4.02148Z M10.999 11.8094C14.2522 11.8094 16.8996 9.163 16.8996 5.91067C16.8986 2.65192 14.2522 0 10.999 0C7.74572 0 5.09839 2.65192 5.09839 5.91067C5.09839 9.163 7.74481 11.8094 10.999 11.8094V11.8094ZM10.999 1.375C13.4941 1.375 15.5246 3.41 15.5246 5.91067C15.5246 8.40492 13.4951 10.4344 10.999 10.4344C8.50289 10.4344 6.47339 8.40492 6.47339 5.91067C6.47339 3.41 8.50289 1.375 10.999 1.375V1.375Z"/></svg>